<svg width="64" height="64" viewBox="0 0 64 64" fill="none" xmlns="http://www.w3.org/2000/svg">
<path fill-rule="evenodd" clip-rule="evenodd" d="M31.9997 13.5733C34.9063 10.16 39.3597 8 43.9997 8C52.213 8 58.6663 14.4533 58.6663 22.6667C58.6663 32.7384 49.6146 40.9465 35.9002 53.3827L35.8663 53.4133L31.9997 56.9333L28.133 53.44L28.0277 53.3443C14.3534 40.918 5.33301 32.7209 5.33301 22.6667C5.33301 14.4533 11.7863 8 19.9997 8C24.6397 8 29.093 10.16 31.9997 13.5733ZM31.9997 49.7333L32.2663 49.4667C44.9597 37.9733 53.333 30.3733 53.333 22.6667C53.333 17.3333 49.333 13.3333 43.9997 13.3333C39.893 13.3333 35.893 15.9733 34.5063 19.6267H29.5197C28.1063 15.9733 24.1063 13.3333 19.9997 13.3333C14.6663 13.3333 10.6663 17.3333 10.6663 22.6667C10.6663 30.3733 19.0397 37.9733 31.733 49.4667L31.9997 49.7333Z" fill="#FD5545"/>
</svg>
