<svg width="56" height="56" viewBox="0 0 56 56" fill="none" xmlns="http://www.w3.org/2000/svg">
<path d="M38.4548 4.66602C45.5563 4.66602 51.3337 10.4434 51.3334 17.5443V38.4544C51.3334 45.5553 45.5563 51.3327 38.4548 51.3327H17.5448C10.4438 51.3327 4.66675 45.5556 4.66675 38.4544V17.5443C4.66675 10.4434 10.4438 4.66602 17.5448 4.66602H38.4548ZM47.1932 38.4544H47.1929V17.5443C47.1929 12.7265 43.273 8.80651 38.4548 8.80651H17.5448C12.7269 8.80651 8.80724 12.7265 8.80724 17.5443V38.4544C8.80724 43.2725 12.7269 47.1925 17.5448 47.1922H38.4551C43.2733 47.1922 47.1932 43.2725 47.1932 38.4544ZM28.0001 16.3327C34.4332 16.3327 39.6668 21.5664 39.6668 27.9996C39.6668 34.4326 34.4332 39.666 28.0001 39.666C21.567 39.666 16.3334 34.4326 16.3334 27.9996C16.3334 21.5664 21.567 16.3327 28.0001 16.3327ZM28.0001 35.6485C32.2178 35.6485 35.6496 32.2172 35.6496 27.9994C35.6496 23.7812 32.2181 20.3497 28.0001 20.3497C23.7821 20.3497 20.3506 23.7812 20.3506 27.9994C20.3506 32.2172 23.7823 35.6485 28.0001 35.6485ZM40.639 12.4438C41.4079 12.4438 42.1609 12.754 42.7019 13.2976C43.2454 13.8385 43.5556 14.5915 43.5556 15.3605C43.5556 16.1267 43.2454 16.8798 42.7019 17.4233C42.1583 17.9642 41.4079 18.2771 40.639 18.2771C39.8727 18.2771 39.1197 17.9642 38.5787 17.4233C38.0352 16.8798 37.7223 16.127 37.7223 15.3605C37.7223 14.5915 38.0349 13.8385 38.5787 13.2976C39.1199 12.754 39.8727 12.4438 40.639 12.4438Z" fill="#FD5545"/>
</svg>
