<svg width="73" height="26" viewBox="0 0 73 26" fill="none" xmlns="http://www.w3.org/2000/svg">
<path d="M11.8379 22C8.06979 22 5.00691 18.9909 5 15.2972V8.70281C5 5.00915 8.06979 2 11.8379 2H12.3288C16.0969 2 19.1667 5.00915 19.1667 8.70281V15.2972C19.1667 18.9909 16.0969 22 12.3288 22H11.8379ZM6.70083 8.70281V15.2972C6.70083 18.0759 9.01009 20.3395 11.8448 20.3395H12.3357C15.1704 20.3395 17.4797 18.0759 17.4797 15.2972V8.70281C17.4797 5.92409 15.1704 3.66045 12.3357 3.66045H11.8448C9.01009 3.66045 6.70083 5.92409 6.70083 8.70281ZM12.5 10.3333C12.0393 10.3333 11.6667 9.95144 11.6667 9.46346V6.20321C11.6667 5.7223 12.0393 5.33333 12.5 5.33333C12.9607 5.33333 13.3333 5.7223 13.3333 6.20321V9.46346C13.3333 9.94437 12.9607 10.3333 12.5 10.3333Z" fill="#FD5545"/>
<path d="M36.6113 18.192C35.9286 18.192 35.246 18.064 34.5633 17.808C33.8913 17.552 33.2886 17.1787 32.7553 16.688L34.0993 15.072C34.4726 15.392 34.8886 15.6533 35.3473 15.856C35.806 16.0587 36.2486 16.16 36.6753 16.16C37.166 16.16 37.5286 16.0693 37.7633 15.888C38.0086 15.7067 38.1313 15.4613 38.1313 15.152C38.1313 14.8213 37.9926 14.5813 37.7153 14.432C37.4486 14.272 37.086 14.096 36.6273 13.904L35.2673 13.328C34.9153 13.1787 34.5793 12.9813 34.2593 12.736C33.9393 12.48 33.678 12.1653 33.4753 11.792C33.2726 11.4187 33.1713 10.9813 33.1713 10.48C33.1713 9.904 33.326 9.38133 33.6353 8.912C33.9553 8.44267 34.3926 8.06933 34.9473 7.792C35.5126 7.51467 36.158 7.376 36.8833 7.376C37.4806 7.376 38.078 7.49333 38.6753 7.728C39.2726 7.96267 39.7953 8.304 40.2433 8.752L39.0433 10.24C38.702 9.97333 38.3606 9.77067 38.0193 9.632C37.678 9.48267 37.2993 9.408 36.8833 9.408C36.478 9.408 36.1526 9.49333 35.9073 9.664C35.6726 9.824 35.5553 10.0533 35.5553 10.352C35.5553 10.672 35.7046 10.912 36.0033 11.072C36.3126 11.232 36.6913 11.4027 37.1393 11.584L38.4833 12.128C39.1126 12.384 39.614 12.736 39.9873 13.184C40.3606 13.632 40.5473 14.224 40.5473 14.96C40.5473 15.536 40.3926 16.0693 40.0833 16.56C39.774 17.0507 39.326 17.4453 38.7393 17.744C38.1526 18.0427 37.4433 18.192 36.6113 18.192ZM45.5819 18.192C44.8459 18.192 44.1793 18.032 43.5819 17.712C42.9953 17.3813 42.5259 16.9067 42.1739 16.288C41.8326 15.6587 41.6619 14.9067 41.6619 14.032C41.6619 13.1467 41.8539 12.3947 42.2379 11.776C42.6219 11.1573 43.1286 10.688 43.7579 10.368C44.3873 10.0373 45.0646 9.872 45.7899 9.872C46.2806 9.872 46.7126 9.952 47.0859 10.112C47.4699 10.272 47.8113 10.4747 48.1099 10.72L47.0059 12.24C46.6326 11.9307 46.2753 11.776 45.9339 11.776C45.3686 11.776 44.9153 11.9787 44.5739 12.384C44.2433 12.7893 44.0779 13.3387 44.0779 14.032C44.0779 14.7147 44.2433 15.264 44.5739 15.68C44.9153 16.0853 45.3419 16.288 45.8539 16.288C46.1099 16.288 46.3606 16.2347 46.6059 16.128C46.8513 16.0107 47.0753 15.872 47.2779 15.712L48.2059 17.248C47.8113 17.5893 47.3846 17.8347 46.9259 17.984C46.4673 18.1227 46.0193 18.192 45.5819 18.192ZM49.5947 18V10.064H51.5147L51.6747 11.456H51.7387C52.0267 10.9227 52.3734 10.528 52.7787 10.272C53.184 10.0053 53.5894 9.872 53.9947 9.872C54.2187 9.872 54.4054 9.888 54.5547 9.92C54.704 9.94133 54.832 9.97867 54.9387 10.032L54.5547 12.064C54.416 12.0213 54.2774 11.9893 54.1387 11.968C54.0107 11.9467 53.8614 11.936 53.6907 11.936C53.392 11.936 53.0774 12.048 52.7467 12.272C52.4267 12.4853 52.16 12.8587 51.9467 13.392V18H49.5947ZM59.2214 18.192C58.5494 18.192 57.9148 18.032 57.3174 17.712C56.7308 17.3813 56.2561 16.9067 55.8934 16.288C55.5308 15.6587 55.3494 14.9067 55.3494 14.032C55.3494 13.1467 55.5308 12.3947 55.8934 11.776C56.2561 11.1573 56.7308 10.688 57.3174 10.368C57.9148 10.0373 58.5494 9.872 59.2214 9.872C59.8934 9.872 60.5228 10.0373 61.1094 10.368C61.6961 10.688 62.1708 11.1573 62.5334 11.776C62.8961 12.3947 63.0774 13.1467 63.0774 14.032C63.0774 14.9067 62.8961 15.6587 62.5334 16.288C62.1708 16.9067 61.6961 17.3813 61.1094 17.712C60.5228 18.032 59.8934 18.192 59.2214 18.192ZM59.2214 16.288C59.7014 16.288 60.0641 16.0853 60.3094 15.68C60.5548 15.264 60.6774 14.7147 60.6774 14.032C60.6774 13.3387 60.5548 12.7893 60.3094 12.384C60.0641 11.9787 59.7014 11.776 59.2214 11.776C58.7308 11.776 58.3628 11.9787 58.1174 12.384C57.8828 12.7893 57.7654 13.3387 57.7654 14.032C57.7654 14.7147 57.8828 15.264 58.1174 15.68C58.3628 16.0853 58.7308 16.288 59.2214 16.288ZM66.8484 18.192C66.0378 18.192 65.4724 17.952 65.1524 17.472C64.8431 16.9813 64.6884 16.336 64.6884 15.536V6.784H67.0404V15.632C67.0404 15.8773 67.0831 16.048 67.1684 16.144C67.2644 16.24 67.3604 16.288 67.4564 16.288C67.5098 16.288 67.5524 16.288 67.5844 16.288C67.6271 16.2773 67.6804 16.2667 67.7444 16.256L68.0324 18C67.9044 18.0533 67.7391 18.096 67.5364 18.128C67.3444 18.1707 67.1151 18.192 66.8484 18.192ZM71.4266 18.192C70.6159 18.192 70.0506 17.952 69.7306 17.472C69.4212 16.9813 69.2666 16.336 69.2666 15.536V6.784H71.6186V15.632C71.6186 15.8773 71.6612 16.048 71.7466 16.144C71.8426 16.24 71.9386 16.288 72.0346 16.288C72.0879 16.288 72.1306 16.288 72.1626 16.288C72.2052 16.2773 72.2586 16.2667 72.3226 16.256L72.6106 18C72.4826 18.0533 72.3172 18.096 72.1146 18.128C71.9226 18.1707 71.6932 18.192 71.4266 18.192Z" fill="#FD5545"/>
</svg>
