<svg width="104" height="104" viewBox="0 0 104 104" fill="none" xmlns="http://www.w3.org/2000/svg">
<path fill-rule="evenodd" clip-rule="evenodd" d="M52.0001 22.0567C56.7234 16.51 63.9601 13 71.5001 13C84.8467 13 95.3334 23.4867 95.3334 36.8333C95.3334 53.1999 80.6243 66.5381 58.3383 86.7469L58.2834 86.7967L52.0001 92.5167L45.7168 86.84L45.5457 86.6846C23.3248 66.4917 8.66675 53.1714 8.66675 36.8333C8.66675 23.4867 19.1534 13 32.5001 13C40.0401 13 47.2767 16.51 52.0001 22.0567ZM52.0001 80.8167L52.4334 80.3833C73.0601 61.7067 86.6667 49.3567 86.6667 36.8333C86.6667 28.1667 80.1667 21.6667 71.5001 21.6667C64.8267 21.6667 58.3267 25.9567 56.0734 31.8933H47.9701C45.6734 25.9567 39.1734 21.6667 32.5001 21.6667C23.8334 21.6667 17.3334 28.1667 17.3334 36.8333C17.3334 49.3567 30.9401 61.7067 51.5667 80.3833L52.0001 80.8167Z" fill="#FD5545"/>
</svg>
