<svg width="20" height="17" viewBox="0 0 20 17" fill="none" xmlns="http://www.w3.org/2000/svg">
<path d="M19.7609 1.90713C19.0336 2.23076 18.2532 2.45025 17.4332 2.54824C18.2705 2.04477 18.9113 1.24622 19.2151 0.297595C18.4297 0.763832 17.5629 1.10238 16.6392 1.2859C15.8996 0.493538 14.8475 0 13.6806 0C11.4418 0 9.62664 1.82283 9.62664 4.06974C9.62664 4.38841 9.66245 4.69966 9.73161 4.99728C6.36302 4.82738 3.37599 3.20669 1.37681 0.743988C1.02734 1.34417 0.828538 2.04351 0.828538 2.79003C0.828538 4.20242 1.54474 5.44864 2.6314 6.17774C1.96705 6.15543 1.34223 5.97191 0.795216 5.66686V5.7177C0.795216 7.68932 2.19304 9.33482 4.0465 9.70932C3.70692 9.80109 3.34883 9.85193 2.97838 9.85193C2.71661 9.85193 2.46346 9.82589 2.21526 9.77628C2.7314 11.3945 4.22803 12.5713 6.00125 12.6035C4.61453 13.6948 2.86601 14.3433 0.966865 14.3433C0.639647 14.3433 0.317337 14.3234 0 14.2875C1.79421 15.4444 3.92429 16.119 6.21365 16.119C13.6708 16.119 17.7469 9.91642 17.7469 4.53724L17.7333 4.01024C18.5298 3.43979 19.2188 2.72307 19.7609 1.90713Z" fill="white"/>
</svg>
