<svg width="88" height="88" viewBox="0 0 88 88" fill="none" xmlns="http://www.w3.org/2000/svg">
<path fill-rule="evenodd" clip-rule="evenodd" d="M43.9999 18.6633C47.9966 13.97 54.1199 11 60.4999 11C71.7933 11 80.6666 19.8733 80.6666 31.1667C80.6666 45.0153 68.2204 56.3015 49.3631 73.4012L49.3166 73.4433L43.9999 78.2833L38.6833 73.48L38.5385 73.3485C19.7362 56.2622 7.33325 44.9912 7.33325 31.1667C7.33325 19.8733 16.2066 11 27.4999 11C33.8799 11 40.0033 13.97 43.9999 18.6633ZM43.9999 68.3833L44.3666 68.0167C61.8199 52.2133 73.3332 41.7633 73.3332 31.1667C73.3332 23.8333 67.8332 18.3333 60.4999 18.3333C54.8532 18.3333 49.3532 21.9633 47.4466 26.9867H40.5899C38.6466 21.9633 33.1466 18.3333 27.4999 18.3333C20.1666 18.3333 14.6666 23.8333 14.6666 31.1667C14.6666 41.7633 26.1799 52.2133 43.6333 68.0167L43.9999 68.3833Z" fill="#FD5545"/>
</svg>
