<svg width="88" height="88" viewBox="0 0 88 88" fill="none" xmlns="http://www.w3.org/2000/svg">
<path d="M60.4288 7.33398C71.5883 7.33398 80.667 16.4127 80.6666 27.5713V60.43C80.6666 71.5886 71.5883 80.6673 60.4288 80.6673H27.5702C16.4115 80.6673 7.33325 71.589 7.33325 60.43V27.5713C7.33325 16.4127 16.4115 7.33398 27.5702 7.33398H60.4288ZM74.1605 60.43H74.1601V27.5713C74.1601 20.0004 68.0002 13.8405 60.4288 13.8405H27.5702C19.9992 13.8405 13.8397 20.0004 13.8397 27.5713V60.43C13.8397 68.0014 19.9992 74.1613 27.5702 74.1608H60.4292C68.0006 74.1608 74.1605 68.0014 74.1605 60.43ZM43.9999 25.6673C54.1091 25.6673 62.3333 33.8917 62.3333 44.0011C62.3333 54.11 54.1091 62.334 43.9999 62.334C33.8908 62.334 25.6666 54.11 25.6666 44.0011C25.6666 33.8917 33.8908 25.6673 43.9999 25.6673ZM43.9999 56.0207C50.6278 56.0207 56.0206 50.6287 56.0206 44.0007C56.0206 37.3722 50.6283 31.9797 43.9999 31.9797C37.3716 31.9797 31.9793 37.3722 31.9793 44.0007C31.9793 50.6287 37.372 56.0207 43.9999 56.0207ZM63.861 19.5562C65.0694 19.5562 66.2527 20.0437 67.1027 20.8979C67.9569 21.7479 68.4444 22.9312 68.4444 24.1395C68.4444 25.3437 67.9569 26.527 67.1027 27.3812C66.2485 28.2312 65.0694 28.7229 63.861 28.7229C62.6569 28.7229 61.4735 28.2312 60.6235 27.3812C59.7694 26.527 59.2777 25.3441 59.2777 24.1395C59.2777 22.9312 59.7689 21.7479 60.6235 20.8979C61.4739 20.0437 62.6569 19.5562 63.861 19.5562Z" fill="#FD5545"/>
</svg>
