<svg width="88" height="88" viewBox="0 0 88 88" fill="none" xmlns="http://www.w3.org/2000/svg">
<path fill-rule="evenodd" clip-rule="evenodd" d="M53.9367 51.3333H56.8333L75.13 69.6667L69.6667 75.13L51.3333 56.8333V53.9367L50.3433 52.91C46.1633 56.5033 40.7367 58.6667 34.8333 58.6667C21.67 58.6667 11 47.9967 11 34.8333C11 21.67 21.67 11 34.8333 11C47.9967 11 58.6667 21.67 58.6667 34.8333C58.6667 40.7367 56.5033 46.1633 52.91 50.3433L53.9367 51.3333ZM18.3333 34.8333C18.3333 43.9633 25.7033 51.3333 34.8333 51.3333C43.9633 51.3333 51.3333 43.9633 51.3333 34.8333C51.3333 25.7033 43.9633 18.3333 34.8333 18.3333C25.7033 18.3333 18.3333 25.7033 18.3333 34.8333Z" fill="#FD5545"/>
</svg>
