<svg width="43" height="60" viewBox="0 0 43 60" fill="none" xmlns="http://www.w3.org/2000/svg">
<path d="M20.5137 60C9.20937 60 0.0207418 50.9726 0 39.8916V20.1084C0 9.02745 9.20937 0 20.5137 0H21.9863C33.2906 0 42.5 9.02745 42.5 20.1084V39.8916C42.5 50.9726 33.2906 60 21.9863 60H20.5137ZM5.10249 20.1084V39.8916C5.10249 48.2277 12.0303 55.0186 20.5344 55.0186H22.0071C30.5112 55.0186 37.439 48.2277 37.439 39.8916V20.1084C37.439 11.7723 30.5112 4.98136 22.0071 4.98136H20.5344C12.0303 4.98136 5.10249 11.7723 5.10249 20.1084ZM22.5 25C21.1179 25 20 23.8543 20 22.3904V12.6096C20 11.1669 21.1179 10 22.5 10C23.8821 10 25 11.1669 25 12.6096V22.3904C25 23.8331 23.8821 25 22.5 25Z" fill="#FD5545"/>
</svg>
