<svg width="240" height="240" viewBox="0 0 240 240" fill="none" xmlns="http://www.w3.org/2000/svg">
<path opacity="0.096329" d="M120 240C186.274 240 240 186.274 240 120C240 53.7258 186.274 0 120 0C53.7258 0 0 53.7258 0 120C0 186.274 53.7258 240 120 240Z" fill="#FD5545"/>
<path opacity="0.096329" d="M120 205C166.944 205 205 166.944 205 120C205 73.0558 166.944 35 120 35C73.0558 35 35 73.0558 35 120C35 166.944 73.0558 205 120 205Z" fill="#FD5545"/>
<g filter="url(#filter0_d_0_775)">
<path d="M120 168C146.51 168 168 146.51 168 120C168 93.4903 146.51 72 120 72C93.4903 72 72 93.4903 72 120C72 146.51 93.4903 168 120 168Z" fill="#FD5545"/>
</g>
<path d="M134 120L114 132V108L134 120Z" fill="white"/>
<defs>
<filter id="filter0_d_0_775" x="56" y="64" width="128" height="128" filterUnits="userSpaceOnUse" color-interpolation-filters="sRGB">
<feFlood flood-opacity="0" result="BackgroundImageFix"/>
<feColorMatrix in="SourceAlpha" type="matrix" values="0 0 0 0 0 0 0 0 0 0 0 0 0 0 0 0 0 0 127 0" result="hardAlpha"/>
<feOffset dy="8"/>
<feGaussianBlur stdDeviation="8"/>
<feColorMatrix type="matrix" values="0 0 0 0 0 0 0 0 0 0 0 0 0 0 0 0 0 0 0.247905 0"/>
<feBlend mode="normal" in2="BackgroundImageFix" result="effect1_dropShadow_0_775"/>
<feBlend mode="normal" in="SourceGraphic" in2="effect1_dropShadow_0_775" result="shape"/>
</filter>
</defs>
</svg>
