<svg width="142" height="48" viewBox="0 0 142 48" fill="none" xmlns="http://www.w3.org/2000/svg">
<path d="M11.3144 0.000156C10.8792 0.000156 10.4493 0.000156 10.0153 0.002556C9.65202 0.004956 9.29162 0.011928 8.92483 0.017796C8.12801 0.0272782 7.33306 0.0981675 6.5469 0.229848C5.76183 0.364395 5.00136 0.618055 4.29121 0.982248C3.58192 1.34952 2.93382 1.82676 2.37043 2.39664C1.80407 2.96492 1.33198 3.62178 0.972286 4.34195C0.611602 5.06069 0.361503 5.83088 0.230626 6.62593C0.0985054 7.41998 0.0274098 8.22318 0.0179778 9.02833C0.00696567 9.39625 0.00580274 9.7654 0 10.1334V37.8705C0.00580274 38.2431 0.00696567 38.604 0.0179778 38.9768C0.0274127 39.7819 0.0985083 40.585 0.230626 41.379C0.361142 42.1745 0.611256 42.9452 0.972286 43.6642C1.33181 44.382 1.80398 45.0362 2.37043 45.6014C2.93168 46.1738 3.5802 46.6513 4.29121 47.0158C5.00136 47.381 5.76175 47.6361 6.5469 47.7728C7.3332 47.9034 8.12806 47.9743 8.92483 47.9849C9.29162 47.9931 9.65202 47.9978 10.0153 47.9978C10.4493 48.0002 10.8793 48.0002 11.3144 48.0002H130.692C131.118 48.0002 131.552 48.0002 131.978 47.9978C132.34 47.9978 132.711 47.9931 133.072 47.9849C133.868 47.9749 134.661 47.9039 135.446 47.7728C136.233 47.6352 136.996 47.3801 137.71 47.0158C138.42 46.6511 139.068 46.1736 139.629 45.6014C140.194 45.034 140.667 44.3803 141.031 43.6642C141.39 42.9447 141.637 42.1741 141.766 41.379C141.898 40.5849 141.972 39.7819 141.986 38.9768C141.991 38.604 141.991 38.2431 141.991 37.8705C142 37.4345 142 37.001 142 36.5579V11.4435C142 11.0041 142 10.5681 141.991 10.1334C141.991 9.7654 141.991 9.39625 141.986 9.02828C141.972 8.22306 141.898 7.42004 141.766 6.62588C141.637 5.83129 141.389 5.06116 141.031 4.3419C140.299 2.89839 139.137 1.72339 137.71 0.98214C136.996 0.618837 136.233 0.365245 135.446 0.22974C134.661 0.0974793 133.868 0.0265653 133.072 0.017628C132.711 0.011772 132.34 0.00474 131.978 0.0024C131.552 0 131.118 0 130.692 0L11.3144 0.000156Z" fill="black"/>
<path fill-rule="evenodd" clip-rule="evenodd" d="M88.9927 34.8914C87.0447 34.8914 85.6191 33.9212 85.455 32.4434L83.188 32.4433C83.3311 35.1386 85.5469 36.8437 88.8286 36.8437C92.3361 36.8437 94.5414 35.0976 94.5414 32.3097C94.5414 30.1301 93.2799 28.9019 90.2437 28.1789L88.6133 27.7757C86.706 27.3012 85.9263 26.6813 85.9263 25.6277C85.9263 24.3059 87.147 23.3977 88.931 23.3977C90.715 23.3977 91.9358 24.2953 92.0696 25.7824H94.3052C94.233 23.2113 92.0894 21.4453 88.9625 21.4453C85.8029 21.4453 83.5779 23.2113 83.5779 25.7824C83.5779 27.859 84.8394 29.1387 87.5567 29.7996L89.4745 30.2649C91.3924 30.7395 92.2023 31.432 92.2023 32.5887C92.2023 33.9211 90.8594 34.8914 88.9927 34.8914ZM50.4102 32.5676H44.7696L43.415 36.5954H41.0258L46.3686 21.6938H48.8508L54.1935 36.5954H51.7636L50.4102 32.5676ZM45.3538 30.709H49.8249L47.6208 24.1723H47.5591L45.3538 30.709ZM61.2295 36.709C63.9375 36.709 65.732 34.5399 65.732 31.1637C65.732 27.7969 63.927 25.6173 61.1887 25.6172C59.7797 25.5715 58.4598 26.3095 57.7534 27.538H57.7127V25.7309H55.569V40.1895H57.7836V34.8082H57.8349C58.5112 36.0445 59.8297 36.7828 61.2295 36.709ZM63.4557 31.1637C63.4557 28.9641 62.3269 27.518 60.6045 27.518C58.9125 27.518 57.7743 28.9946 57.7743 31.1637C57.7743 33.3528 58.9125 34.8188 60.6045 34.8188C62.3269 34.8188 63.4557 33.3833 63.4557 31.1637ZM73.1042 36.709C75.8123 36.709 77.6067 34.5399 77.6067 31.1637C77.6067 27.7969 75.8018 25.6173 73.0635 25.6173C71.6545 25.5715 70.3345 26.3095 69.6281 27.538H69.5874V25.7309H67.4438V40.1895H69.6584V34.8082H69.7096C70.386 36.0445 71.7045 36.7828 73.1042 36.709ZM75.3305 31.1637C75.3305 28.9641 74.2016 27.518 72.4793 27.518C70.7872 27.518 69.6491 28.9946 69.6491 31.1637C69.6491 33.3528 70.7872 34.8188 72.4793 34.8188C74.2016 34.8188 75.3305 33.3833 75.3305 31.1637ZM99.3209 23.1598V25.7309H101.373V27.4969H99.3209V33.4864C99.3209 34.4169 99.7317 34.8505 100.634 34.8505C100.877 34.8462 101.12 34.829 101.362 34.7989V36.5543C100.957 36.6306 100.544 36.6652 100.132 36.6574C97.9477 36.6574 97.0958 35.8313 97.0958 33.7242V27.4969H95.5271V25.7309H97.0958V23.1598H99.3209ZM107.678 25.5973C104.56 25.5973 102.561 27.7454 102.561 31.1637C102.561 34.5915 104.54 36.7301 107.678 36.7301C110.816 36.7301 112.796 34.5915 112.796 31.1637C112.796 27.7453 110.806 25.5973 107.678 25.5973ZM110.539 31.1637C110.539 28.8188 109.472 27.4348 107.678 27.4348C105.883 27.4348 104.817 28.8294 104.817 31.1637C104.817 33.518 105.883 34.8915 107.678 34.8915C109.472 34.8915 110.539 33.518 110.539 31.1637ZM116.734 25.7309H114.622L114.622 36.5954H116.836V30.1512C116.763 29.4993 116.975 28.8474 117.419 28.3669C117.863 27.8863 118.493 27.625 119.144 27.6516C119.481 27.6417 119.817 27.6872 120.139 27.7864V25.7004C119.89 25.6442 119.635 25.6163 119.38 25.6172C118.163 25.5704 117.08 26.3897 116.785 27.5801H116.734V25.7309ZM130.35 33.4044C130.052 35.3766 128.144 36.7301 125.704 36.7301C122.565 36.7301 120.617 34.6126 120.617 31.2153C120.617 27.8075 122.576 25.5973 125.611 25.5973C128.596 25.5973 130.473 27.6622 130.473 30.9563V31.7204H122.853V31.8551C122.782 32.664 123.059 33.4646 123.614 34.0534C124.17 34.6422 124.949 34.9623 125.755 34.9325C126.83 35.0339 127.843 34.4124 128.247 33.4043L130.35 33.4044ZM128.257 30.1618H122.863C122.861 29.4283 123.151 28.7244 123.667 28.2066C124.183 27.6888 124.882 27.4 125.611 27.4044C126.334 27.3887 127.03 27.6774 127.532 28.2008C128.035 28.7243 128.297 29.435 128.257 30.1618Z" fill="white"/>
<path fill-rule="evenodd" clip-rule="evenodd" d="M70.4201 10.125H71.4791V17.6379H70.4201V10.125ZM47.5853 11.4592C46.9372 10.7701 46.0164 10.4099 45.0762 10.4778H42.5078V17.638H45.0762C47.1942 17.638 48.422 16.3231 48.422 14.0356C48.5405 13.094 48.2335 12.1484 47.5853 11.4592ZM44.9528 16.6254H43.6122V11.4897H44.9528C45.6212 11.4523 46.2711 11.7177 46.7249 12.2132C47.1786 12.7087 47.3888 13.3824 47.2978 14.0502C47.3959 14.7208 47.1887 15.4001 46.7338 15.8997C46.279 16.3993 45.6247 16.6658 44.9528 16.6254ZM49.6695 14.9338C49.5775 13.9653 50.0387 13.0279 50.8596 12.5149C51.6806 12.0019 52.7194 12.0019 53.5404 12.5149C54.3614 13.0279 54.8226 13.9653 54.7306 14.9338C54.8243 15.9034 54.3636 16.8425 53.5418 17.3567C52.7201 17.8708 51.6799 17.8708 50.8582 17.3567C50.0365 16.8425 49.5757 15.9034 49.6695 14.9338ZM52.2018 13.0776C53.1188 13.0776 53.6413 13.7625 53.6413 14.9338H53.6413C53.6413 16.1098 53.1188 16.7942 52.2018 16.7942C51.2813 16.7942 50.7634 16.1145 50.7634 14.9338C50.7634 13.7625 51.2813 13.0776 52.2018 13.0776ZM61.4581 17.6379H60.3596L59.2505 13.6582H59.1667L58.0624 17.6379H56.9743L55.4952 12.2344H56.5693L57.5305 16.3576H57.6097L58.7129 12.2344H59.7288L60.8321 16.3576H60.9158L61.8724 12.2344H62.9314L61.4581 17.6379ZM65.1949 12.2344H64.1755L64.1755 17.6379H65.2345V14.4768C65.1965 14.1172 65.3163 13.7588 65.5626 13.4956C65.8089 13.2324 66.157 13.0906 66.5157 13.1074C67.2989 13.1074 67.6737 13.5393 67.6737 14.4076V17.6378H68.7326V14.1398C68.8103 13.6115 68.6451 13.0763 68.2838 12.6853C67.9225 12.2943 67.4042 12.09 66.8753 12.1301C66.1923 12.0742 65.5492 12.4608 65.274 13.0928H65.1949V12.2344ZM74.1416 12.5148C73.3205 13.0278 72.8593 13.9652 72.9512 14.9338C72.8576 15.9034 73.3184 16.8425 74.1402 17.3566C74.9619 17.8707 76.0022 17.8707 76.8239 17.3566C77.6457 16.8425 78.1065 15.9034 78.0129 14.9338C78.1048 13.9652 77.6435 13.0278 76.8225 12.5148C76.0015 12.0018 74.9626 12.0018 74.1416 12.5148ZM76.923 14.9338C76.923 13.7625 76.4005 13.0776 75.4835 13.0776C74.563 13.0776 74.0451 13.7625 74.0451 14.9338C74.0451 16.1145 74.563 16.7942 75.4835 16.7942C76.4005 16.7942 76.923 16.1098 76.923 14.9338ZM81.1235 14.4967C79.8469 14.5764 79.1277 15.1371 79.1277 16.1098C79.1295 16.571 79.325 17.0099 79.6658 17.318C80.0066 17.6261 80.4609 17.7747 80.9164 17.7269C81.5662 17.7572 82.1819 17.4331 82.5282 16.8785H82.612V17.6379H83.6314V13.9459C83.6314 12.8045 82.8726 12.1301 81.5274 12.1301C80.3101 12.1301 79.4431 12.7254 79.3349 13.6535H80.3601C80.4777 13.2715 80.8873 13.053 81.4785 13.053C82.2023 13.053 82.577 13.3752 82.577 13.9459V14.4123L81.1235 14.4967ZM82.5771 15.6481V15.1963L81.2667 15.2807C80.5277 15.3305 80.1926 15.5836 80.1926 16.06C80.1926 16.5463 80.6115 16.8293 81.1876 16.8293C81.5286 16.8641 81.8691 16.758 82.131 16.5353C82.3929 16.3126 82.5539 15.9924 82.5771 15.6481ZM87.2506 12.1447C85.8949 12.1447 85.0232 13.2264 85.0232 14.9338C85.0232 16.6453 85.8856 17.727 87.2506 17.7269C87.9427 17.7526 88.5918 17.3895 88.9357 16.7842H89.0195V17.6379H90.0343V10.125H88.9753V13.0927H88.8961C88.5764 12.4824 87.9352 12.113 87.2506 12.1447ZM86.1172 14.9338C86.1172 16.0799 86.6537 16.7696 87.5509 16.7696C88.4435 16.7696 88.9951 16.07 88.9951 14.9385C88.9951 13.8123 88.4377 13.1028 87.5509 13.1028C86.6594 13.1028 86.1171 13.7971 86.1171 14.9338H86.1172ZM95.6059 12.5149C94.7849 13.0279 94.3237 13.9653 94.4157 14.9338C94.322 15.9034 94.7828 16.8425 95.6045 17.3567C96.4262 17.8708 97.4664 17.8708 98.2881 17.3567C99.1098 16.8425 99.5706 15.9034 99.4768 14.9338C99.5689 13.9653 99.1077 13.0279 98.2867 12.5149C97.4657 12.0019 96.4269 12.0019 95.6059 12.5149ZM98.3876 14.9338C98.3876 13.7625 97.8651 13.0776 96.948 13.0776C96.0275 13.0776 95.5097 13.7625 95.5097 14.9338C95.5097 16.1145 96.0276 16.7942 96.948 16.7942C97.8651 16.7942 98.3876 16.1098 98.3876 14.9338ZM101.917 12.2344H100.898V17.6379H101.957V14.4768C101.919 14.1172 102.039 13.7588 102.285 13.4956C102.531 13.2324 102.879 13.0906 103.238 13.1074C104.021 13.1074 104.396 13.5393 104.396 14.4076V17.6378H105.455V14.1398C105.533 13.6115 105.367 13.0763 105.006 12.6853C104.645 12.2943 104.127 12.09 103.598 12.1301C102.915 12.0742 102.272 12.4608 101.996 13.0928H101.917V12.2344ZM111.439 10.8891V12.259H112.601V13.1572H111.439V15.9358C111.439 16.5018 111.67 16.7496 112.198 16.7496C112.333 16.7492 112.467 16.741 112.601 16.725V17.6133C112.411 17.6475 112.219 17.6658 112.025 17.6678C110.848 17.6678 110.379 17.2506 110.379 16.2088V13.1572H109.527V12.2589H110.379V10.8891H111.439ZM115.098 10.125H114.048L114.048 17.6379H115.107V14.482C115.074 14.1112 115.206 13.7448 115.466 13.4807C115.727 13.2165 116.09 13.0817 116.458 13.1121C117.206 13.1121 117.606 13.5492 117.606 14.4123V17.6379H118.666V14.1492C118.736 13.6236 118.569 13.0939 118.212 12.7043C117.855 12.3148 117.344 12.106 116.818 12.1348C116.124 12.0781 115.47 12.4652 115.181 13.1027H115.098V10.125ZM124.84 16.1789C124.544 17.1982 123.564 17.8567 122.515 17.7422C121.8 17.7612 121.112 17.4626 120.635 16.9255C120.157 16.3884 119.939 15.6671 120.037 14.9531C119.941 14.2371 120.159 13.5148 120.634 12.9731C121.109 12.4315 121.793 12.1239 122.511 12.1301C124.004 12.1301 124.904 13.1573 124.904 14.8541V15.2262H121.115V15.286C121.082 15.6869 121.218 16.0835 121.49 16.3782C121.762 16.673 122.145 16.8384 122.544 16.834C123.063 16.8966 123.567 16.6378 123.821 16.1789L124.84 16.1789ZM123.826 14.4375H121.115C121.111 14.0649 121.255 13.7061 121.517 13.4426C121.779 13.179 122.135 13.033 122.505 13.0377C122.87 13.0293 123.222 13.1765 123.473 13.4431C123.725 13.7096 123.853 14.0708 123.826 14.4375Z" fill="white"/>
<path fill-rule="evenodd" clip-rule="evenodd" d="M27.5892 10.4648C27.7046 11.9819 27.2281 13.4845 26.2611 14.6536C25.3228 15.8287 23.9012 16.5056 22.4039 16.49C22.3087 15.0166 22.799 13.5655 23.7668 12.4564C24.747 11.3322 26.1117 10.6211 27.5892 10.4648ZM32.3245 19.3789C30.6021 20.4451 29.5423 22.3256 29.5162 24.3613C29.5187 26.6646 30.8884 28.7431 32.995 29.6403C32.5899 30.9657 31.9792 32.2181 31.1856 33.3514C30.1198 34.9568 29.0023 36.5253 27.2286 36.5543C26.3851 36.5739 25.8157 36.3297 25.2223 36.0751C24.6034 35.8097 23.9585 35.533 22.9493 35.533C21.8791 35.533 21.2053 35.8186 20.5554 36.094C19.9938 36.332 19.4501 36.5624 18.6839 36.5944C16.9948 36.6574 15.7039 34.8808 14.5993 33.2904C12.3916 30.0425 10.6725 24.1372 12.9772 20.1191C14.0594 18.1608 16.083 16.918 18.3074 16.8457C19.2654 16.8258 20.1847 17.1977 20.9907 17.5236C21.607 17.7729 22.1571 17.9954 22.6076 17.9954C23.0035 17.9954 23.5383 17.7817 24.1615 17.5327C25.1431 17.1403 26.3443 16.6603 27.5683 16.7896C29.4704 16.8496 31.233 17.8091 32.3245 19.3789Z" fill="white"/>
</svg>
