<svg width="161" height="48" viewBox="0 0 161 48" fill="none" xmlns="http://www.w3.org/2000/svg">
<path d="M9 0H152C156.971 0 161 4.02944 161 9V39C161 43.9706 156.971 48 152 48H9C4.02944 48 0 43.9706 0 39V9C0 4.02944 4.02944 0 9 0Z" fill="black"/>
<path fill-rule="evenodd" clip-rule="evenodd" d="M56.9344 27.6726V29.8326H62.0864C62.0056 30.8499 61.5853 31.8099 60.8938 32.5566C59.8515 33.6248 58.4091 34.2001 56.9224 34.1406C53.7609 34.1406 51.198 31.5617 51.198 28.3806C51.198 25.1994 53.7609 22.6206 56.9224 22.6206C58.3748 22.5967 59.7772 23.1534 60.8222 24.1686L62.3368 22.6446C60.9116 21.1924 58.9626 20.3829 56.9344 20.4006C54.0471 20.2875 51.3297 21.773 49.8526 24.2718C48.3755 26.7707 48.3755 29.8824 49.8526 32.3813C51.3297 34.8801 54.0471 36.3656 56.9344 36.2526C58.9997 36.3465 61.0044 35.537 62.4322 34.0326C63.6817 32.6513 64.3488 30.8355 64.2927 28.9686C64.2965 28.5137 64.2566 28.0596 64.1734 27.6126L56.9344 27.6726ZM70.1602 26.1006C67.3625 26.1072 65.0993 28.3935 65.1036 31.2085C65.108 34.0236 67.3784 36.3027 70.1761 36.3005C72.9738 36.2983 75.2407 34.0156 75.2407 31.2006C75.2603 29.8378 74.7293 28.5254 73.7693 27.564C72.8093 26.6025 71.5025 26.0744 70.1483 26.1006H70.1602ZM76.2186 31.2165C76.2099 28.403 78.4671 26.1138 81.2633 26.1006C82.6175 26.0744 83.9243 26.6025 84.8843 27.564C85.8443 28.5254 86.3753 29.8378 86.3556 31.2006C86.3556 34.0141 84.0912 36.2961 81.295 36.3005C78.4989 36.3049 76.2274 34.03 76.2186 31.2165ZM78.2723 32.5427C78.8169 33.6897 80.003 34.3852 81.2633 34.2966C82.0543 34.2781 82.8044 33.9389 83.3433 33.356C83.8822 32.773 84.1643 31.9958 84.1255 31.2006C84.1224 29.9293 83.3474 28.7892 82.171 28.3255C80.9947 27.8617 79.6562 28.1686 78.7957 29.0994C77.9353 30.0302 77.7277 31.3956 78.2723 32.5427ZM67.1613 32.5519C67.7097 33.6982 68.8993 34.3902 70.1602 34.2966H70.1483C70.9393 34.2781 71.6894 33.9389 72.2283 33.356C72.7673 32.773 73.0493 31.9958 73.0105 31.2006C73.0071 29.9283 72.2305 28.7877 71.0527 28.325C69.8749 27.8623 68.5357 28.1717 67.6764 29.105C66.8172 30.0383 66.6128 31.4055 67.1613 32.5519ZM106.63 26.1006C108.607 26.1738 110.334 27.4676 110.971 29.3526L111.221 29.8926L104.435 32.7126C104.861 33.6872 105.835 34.3011 106.892 34.2606C107.913 34.2632 108.86 33.7253 109.385 32.8446L111.114 34.0446C110.172 35.4623 108.587 36.3097 106.892 36.3006C105.545 36.3204 104.248 35.7883 103.299 34.8264C102.35 33.8646 101.83 32.5557 101.859 31.2006C101.777 29.8764 102.243 28.5769 103.147 27.6108C104.05 26.6446 105.311 26.098 106.63 26.1006ZM104.054 31.0566C104.005 30.3068 104.258 29.5687 104.756 29.0089C105.254 28.449 105.955 28.1144 106.701 28.0806C107.488 28.0284 108.229 28.4534 108.586 29.1606L104.054 31.0566ZM100.774 36.0006H98.5439V21.0006H100.774V36.0006ZM94.8946 27.2406H94.8111C94.1313 26.4758 93.1594 26.0392 92.1397 26.0406C89.4327 26.1726 87.3053 28.4195 87.3053 31.1466C87.3053 33.8736 89.4327 36.1205 92.1397 36.2526C93.1627 36.2699 94.1409 35.8305 94.8111 35.0526H94.8827V35.7846C94.8827 37.7406 93.8451 38.7846 92.1755 38.7846C91.0381 38.7578 90.0297 38.0418 89.6233 36.9726L87.6794 37.7886C88.428 39.6207 90.2068 40.8124 92.1755 40.8006C94.7873 40.8006 96.9459 39.2526 96.9459 35.4846V26.4006H94.8946V27.2406ZM92.3387 34.2962L92.3424 34.2966H92.3305L92.3387 34.2962ZM94.3484 33.3339C93.8365 33.9167 93.1108 34.2641 92.3387 34.2962C90.7459 34.1531 89.5248 32.8101 89.5248 31.2006C89.5248 29.5898 90.7478 28.246 92.3424 28.1046C93.113 28.1443 93.835 28.4955 94.3446 29.0784C94.8543 29.6612 95.1085 30.4265 95.0496 31.2006C95.1154 31.9782 94.862 32.7491 94.3484 33.3339ZM121.418 21.0006H116.087V36.0006H118.317V30.3126H121.43C123.162 30.4378 124.819 29.5788 125.723 28.0865C126.627 26.5943 126.627 24.7188 125.723 23.2266C124.819 21.7343 123.162 20.8753 121.43 21.0006H121.418ZM118.305 28.2006H121.418L121.466 28.2366C122.878 28.2366 124.024 27.0841 124.024 25.6626C124.024 24.241 122.878 23.0886 121.466 23.0886H118.305V28.2006ZM135.168 26.0406C133.509 25.9408 131.949 26.8411 131.197 28.3326L133.177 29.1606C133.576 28.421 134.371 27.988 135.204 28.0566C135.776 27.9893 136.351 28.1561 136.799 28.5194C137.248 28.8827 137.533 29.412 137.589 29.9886V30.1446C136.873 29.763 136.074 29.5651 135.264 29.5686C133.129 29.5686 130.971 30.7686 130.971 32.9406C131.013 33.8762 131.43 34.7548 132.126 35.3763C132.823 35.9979 133.739 36.3096 134.668 36.2406C135.812 36.3232 136.909 35.771 137.53 34.8006H137.601V36.0006H139.748V30.2286C139.748 27.6006 137.768 26.0766 135.228 26.0766L135.168 26.0406ZM133.153 32.9886C133.153 33.8886 134.167 34.2606 134.894 34.2606L134.954 34.2966C136.297 34.2636 137.411 33.2399 137.566 31.8966C136.947 31.549 136.247 31.375 135.538 31.3926C134.417 31.3926 133.153 31.7886 133.153 32.9886ZM147.571 26.4006L145.019 32.9046H144.948L142.3 26.4006H139.915L143.886 35.4966L141.62 40.5486H143.946L150.052 26.4006H147.571ZM129.754 36.0006H127.524V21.0006H129.754V36.0006Z" fill="white"/>
<path fill-rule="evenodd" clip-rule="evenodd" d="M82.5393 9.32377C81.1324 10.8223 81.1324 13.1653 82.5393 14.6638C83.9907 16.116 86.3353 16.116 87.7867 14.6638C89.1997 13.1677 89.1997 10.8199 87.7867 9.32377C87.0927 8.62027 86.1482 8.22461 85.163 8.22461C84.1779 8.22461 83.2334 8.62027 82.5393 9.32377ZM55.6583 14.6878C56.2704 14.0447 56.5937 13.1772 56.5527 12.2878C56.5528 12.1067 56.5368 11.926 56.505 11.7478H53.0346V12.6118H55.6225C55.6048 13.156 55.3932 13.6756 55.0262 14.0758C54.2088 14.8708 52.9963 15.093 51.9528 14.6389C50.9094 14.1848 50.2399 13.1436 50.2559 11.9998C50.2299 11.2428 50.5115 10.5079 51.0359 9.9645C51.5602 9.42107 52.2819 9.11605 53.0346 9.11977C53.7834 9.0786 54.5079 9.39418 54.9904 9.97177L55.6225 9.33577C55.3172 8.98244 54.933 8.70691 54.5015 8.53177C54.038 8.33217 53.5388 8.23008 53.0346 8.23177C52.0454 8.20959 51.0913 8.60056 50.399 9.31177C49.3334 10.391 49.0146 12.0077 49.59 13.4145C50.1654 14.8212 51.5228 15.7439 53.0346 15.7558C54.0203 15.7911 54.9743 15.4027 55.6583 14.6878ZM58.7948 9.28777H62.0148V8.39977H57.8407V15.5998H62.0148V14.7118H58.7948V12.4318H61.7286V11.5678H58.7948V9.28777ZM65.9265 15.5998H65.0082V9.28777H63.0047V8.39977H67.9778V9.28777H65.9265V15.5998ZM72.4023 8.39977H71.484V15.5998H72.4023V8.39977ZM76.481 15.5998H75.5627V9.28777H73.5591V8.39977H78.4726V9.28777H76.481V15.5998ZM91.2572 8.39977H90.1362V15.5998H91.0664V9.73177L94.7038 15.5998H95.6579V8.39977H94.7396V14.0038L91.2572 8.39977ZM83.2191 14.0638C84.294 15.1408 86.0321 15.1408 87.107 14.0638C88.1626 12.8928 88.1626 11.1068 87.107 9.93577C86.0321 8.85869 84.294 8.85869 83.2191 9.93577C82.1634 11.1068 82.1634 12.8928 83.2191 14.0638Z" fill="white"/>
<path d="M82.5393 14.6638L82.4664 14.7323L82.4686 14.7345L82.5393 14.6638ZM82.5393 9.32377L82.4681 9.25352L82.4664 9.25532L82.5393 9.32377ZM87.7867 14.6638L87.8575 14.7345L87.8594 14.7324L87.7867 14.6638ZM87.7867 9.32377L87.8595 9.25509L87.8579 9.25354L87.7867 9.32377ZM56.5527 12.2878L56.4526 12.2877L56.4528 12.2924L56.5527 12.2878ZM55.6583 14.6878L55.7306 14.7569L55.7307 14.7567L55.6583 14.6878ZM56.505 11.7478L56.6035 11.7302L56.5888 11.6478H56.505V11.7478ZM53.0346 11.7478V11.6478H52.9346V11.7478H53.0346ZM53.0346 12.6118H52.9346V12.7118H53.0346V12.6118ZM55.6225 12.6118L55.7225 12.615L55.7258 12.5118H55.6225V12.6118ZM55.0262 14.0758L55.0961 14.1476L55.0999 14.1434L55.0262 14.0758ZM51.9528 14.6389L51.9129 14.7306L51.9528 14.6389ZM50.2559 11.9998L50.356 12.0012L50.3558 11.9963L50.2559 11.9998ZM51.0359 9.9645L50.9639 9.89506L51.0359 9.9645ZM53.0346 9.11977L53.0341 9.21995L53.0401 9.21962L53.0346 9.11977ZM54.9904 9.97177L54.9137 10.0359L54.984 10.1201L55.0614 10.0423L54.9904 9.97177ZM55.6225 9.33577L55.6934 9.40626L55.7588 9.34052L55.6982 9.27039L55.6225 9.33577ZM54.5015 8.53177L54.4619 8.62364L54.4639 8.62443L54.5015 8.53177ZM53.0346 8.23177L53.0324 8.33178L53.0349 8.33177L53.0346 8.23177ZM50.399 9.31177L50.4701 9.38203L50.4706 9.38152L50.399 9.31177ZM49.59 13.4145L49.4975 13.4523L49.59 13.4145ZM53.0346 15.7558L53.0382 15.6558L53.0354 15.6558L53.0346 15.7558ZM62.0148 9.28777V9.38777H62.1148V9.28777H62.0148ZM58.7948 9.28777V9.18777H58.6948V9.28777H58.7948ZM62.0148 8.39977H62.1148V8.29977H62.0148V8.39977ZM57.8407 8.39977V8.29977H57.7407V8.39977H57.8407ZM57.8407 15.5998H57.7407V15.6998H57.8407V15.5998ZM62.0148 15.5998V15.6998H62.1148V15.5998H62.0148ZM62.0148 14.7118H62.1148V14.6118H62.0148V14.7118ZM58.7948 14.7118H58.6948V14.8118H58.7948V14.7118ZM58.7948 12.4318V12.3318H58.6948V12.4318H58.7948ZM61.7286 12.4318V12.5318H61.8286V12.4318H61.7286ZM61.7286 11.5678H61.8286V11.4678H61.7286V11.5678ZM58.7948 11.5678H58.6948V11.6678H58.7948V11.5678ZM65.0082 15.5998H64.9082V15.6998H65.0082V15.5998ZM65.9265 15.5998V15.6998H66.0265V15.5998H65.9265ZM65.0082 9.28777H65.1082V9.18777H65.0082V9.28777ZM63.0047 9.28777H62.9047V9.38777H63.0047V9.28777ZM63.0047 8.39977V8.29977H62.9047V8.39977H63.0047ZM67.9778 8.39977H68.0778V8.29977H67.9778V8.39977ZM67.9778 9.28777V9.38777H68.0778V9.28777H67.9778ZM65.9265 9.28777V9.18777H65.8265V9.28777H65.9265ZM71.484 8.39977V8.29977H71.384V8.39977H71.484ZM72.4023 8.39977H72.5023V8.29977H72.4023V8.39977ZM71.484 15.5998H71.384V15.6998H71.484V15.5998ZM72.4023 15.5998V15.6998H72.5023V15.5998H72.4023ZM75.5627 15.5998H75.4627V15.6998H75.5627V15.5998ZM76.481 15.5998V15.6998H76.581V15.5998H76.481ZM75.5627 9.28777H75.6627V9.18777H75.5627V9.28777ZM73.5591 9.28777H73.4591V9.38777H73.5591V9.28777ZM73.5591 8.39977V8.29977H73.4591V8.39977H73.5591ZM78.4726 8.39977H78.5726V8.29977H78.4726V8.39977ZM78.4726 9.28777V9.38777H78.5726V9.28777H78.4726ZM76.481 9.28777V9.18777H76.381V9.28777H76.481ZM90.1362 8.39977V8.29977H90.0362V8.39977H90.1362ZM91.2572 8.39977L91.3421 8.34699L91.3128 8.29977H91.2572V8.39977ZM90.1362 15.5998H90.0362V15.6998H90.1362V15.5998ZM91.0664 15.5998V15.6998H91.1664V15.5998H91.0664ZM91.0664 9.73177L91.1514 9.67908L90.9664 9.38064V9.73177H91.0664ZM94.7038 15.5998L94.6188 15.6525L94.6481 15.6998H94.7038V15.5998ZM95.6579 15.5998V15.6998H95.7579V15.5998H95.6579ZM95.6579 8.39977H95.7579V8.29977H95.6579V8.39977ZM94.7396 8.39977V8.29977H94.6396V8.39977H94.7396ZM94.7396 14.0038L94.6546 14.0566L94.8396 14.3542V14.0038H94.7396ZM87.107 14.0638L87.1778 14.1345L87.1812 14.1307L87.107 14.0638ZM83.2191 14.0638L83.1447 14.1308L83.1483 14.1344L83.2191 14.0638ZM87.107 9.93577L87.1813 9.86872L87.1777 9.86513L87.107 9.93577ZM83.2191 9.93577L83.1482 9.86504L83.1448 9.86881L83.2191 9.93577ZM82.6122 14.5953C81.2414 13.1353 81.2414 10.8523 82.6122 9.39222L82.4664 9.25532C81.0234 10.7923 81.0234 13.1952 82.4664 14.7322L82.6122 14.5953ZM87.716 14.5931C86.3037 16.0063 84.0224 16.0063 82.6101 14.5931L82.4686 14.7345C83.9591 16.2258 86.367 16.2258 87.8575 14.7345L87.716 14.5931ZM87.714 9.39243C89.0906 10.85 89.0906 13.1375 87.714 14.5951L87.8594 14.7324C89.3088 13.1978 89.3088 10.7898 87.8594 9.25511L87.714 9.39243ZM85.163 8.32461C86.1214 8.32461 87.0402 8.70948 87.7156 9.394L87.8579 9.25354C87.1451 8.53105 86.1751 8.12461 85.163 8.12461V8.32461ZM82.6105 9.394C83.2859 8.70948 84.2047 8.32461 85.163 8.32461V8.12461C84.151 8.12461 83.181 8.53105 82.4681 9.25354L82.6105 9.394ZM56.4528 12.2924C56.4926 13.1547 56.1791 13.9956 55.5859 14.6188L55.7307 14.7567C56.3617 14.0939 56.6949 13.1998 56.6526 12.2832L56.4528 12.2924ZM56.4066 11.7653C56.4374 11.9377 56.4528 12.1126 56.4527 12.2877L56.6527 12.2878C56.6528 12.1008 56.6363 11.9142 56.6035 11.7302L56.4066 11.7653ZM53.0346 11.8478H56.505V11.6478H53.0346V11.8478ZM53.1346 12.6118V11.7478H52.9346V12.6118H53.1346ZM55.6225 12.5118H53.0346V12.7118H55.6225V12.5118ZM55.0999 14.1434C55.4831 13.7255 55.704 13.183 55.7225 12.615L55.5226 12.6085C55.5057 13.1289 55.3033 13.6257 54.9525 14.0082L55.0999 14.1434ZM51.9129 14.7306C52.9937 15.2009 54.2495 14.9707 55.0959 14.1475L54.9565 14.0041C54.1681 14.7709 52.9989 14.985 51.9927 14.5472L51.9129 14.7306ZM50.1559 11.9984C50.1393 13.1822 50.8322 14.2603 51.9129 14.7306L51.9927 14.5472C50.9865 14.1093 50.3404 13.105 50.3558 12.0012L50.1559 11.9984ZM50.9639 9.89506C50.4207 10.458 50.129 11.2193 50.1559 12.0032L50.3558 11.9963C50.3308 11.2664 50.6024 10.5578 51.1078 10.0339L50.9639 9.89506ZM53.0351 9.01977C52.255 9.01592 51.5071 9.33206 50.9639 9.89506L51.1078 10.0339C51.6132 9.51009 52.3088 9.21619 53.0341 9.21977L53.0351 9.01977ZM55.0672 9.90765C54.5644 9.30595 53.8096 8.97701 53.0291 9.01992L53.0401 9.21962C53.7572 9.18019 54.4513 9.48241 54.9137 10.0359L55.0672 9.90765ZM55.5516 9.26528L54.9195 9.90128L55.0614 10.0423L55.6934 9.40626L55.5516 9.26528ZM54.4639 8.62443C54.8807 8.7936 55.2519 9.05976 55.5469 9.40115L55.6982 9.27039C55.3825 8.90511 54.9853 8.62022 54.5391 8.43911L54.4639 8.62443ZM53.0349 8.33177C53.5254 8.33012 54.011 8.42944 54.4619 8.62362L54.541 8.43992C54.0649 8.23491 53.5522 8.13003 53.0343 8.13177L53.0349 8.33177ZM50.4706 9.38152C51.1437 8.69014 52.0711 8.31019 53.0324 8.33174L53.0368 8.13179C52.0198 8.10899 51.0389 8.51098 50.3273 9.24202L50.4706 9.38152ZM49.6826 13.3766C49.1223 12.0068 49.4328 10.4326 50.4701 9.38203L50.3278 9.24151C49.234 10.3493 48.907 12.0086 49.4975 13.4523L49.6826 13.3766ZM53.0354 15.6558C51.5642 15.6442 50.2428 14.7463 49.6826 13.3766L49.4975 13.4523C50.088 14.8961 51.4814 15.8435 53.0338 15.8558L53.0354 15.6558ZM55.586 14.6186C54.9217 15.3131 53.9952 15.6901 53.0382 15.6558L53.031 15.8557C54.0453 15.892 55.0269 15.4924 55.7306 14.7569L55.586 14.6186ZM62.0148 9.18777H58.7948V9.38777H62.0148V9.18777ZM61.9148 8.39977V9.28777H62.1148V8.39977H61.9148ZM57.8407 8.49977H62.0148V8.29977H57.8407V8.49977ZM57.9407 15.5998V8.39977H57.7407V15.5998H57.9407ZM62.0148 15.4998H57.8407V15.6998H62.0148V15.4998ZM61.9148 14.7118V15.5998H62.1148V14.7118H61.9148ZM58.7948 14.8118H62.0148V14.6118H58.7948V14.8118ZM58.6948 12.4318V14.7118H58.8948V12.4318H58.6948ZM61.7286 12.3318H58.7948V12.5318H61.7286V12.3318ZM61.6286 11.5678V12.4318H61.8286V11.5678H61.6286ZM58.7948 11.6678H61.7286V11.4678H58.7948V11.6678ZM58.6948 9.28777V11.5678H58.8948V9.28777H58.6948ZM65.0082 15.6998H65.9265V15.4998H65.0082V15.6998ZM64.9082 9.28777V15.5998H65.1082V9.28777H64.9082ZM63.0047 9.38777H65.0082V9.18777H63.0047V9.38777ZM62.9047 8.39977V9.28777H63.1047V8.39977H62.9047ZM67.9778 8.29977H63.0047V8.49977H67.9778V8.29977ZM68.0778 9.28777V8.39977H67.8778V9.28777H68.0778ZM65.9265 9.38777H67.9778V9.18777H65.9265V9.38777ZM66.0265 15.5998V9.28777H65.8265V15.5998H66.0265ZM71.484 8.49977H72.4023V8.29977H71.484V8.49977ZM71.584 15.5998V8.39977H71.384V15.5998H71.584ZM72.4023 15.4998H71.484V15.6998H72.4023V15.4998ZM72.3023 8.39977V15.5998H72.5023V8.39977H72.3023ZM75.5627 15.6998H76.481V15.4998H75.5627V15.6998ZM75.4627 9.28777V15.5998H75.6627V9.28777H75.4627ZM73.5591 9.38777H75.5627V9.18777H73.5591V9.38777ZM73.4591 8.39977V9.28777H73.6591V8.39977H73.4591ZM78.4726 8.29977H73.5591V8.49977H78.4726V8.29977ZM78.5726 9.28777V8.39977H78.3726V9.28777H78.5726ZM76.481 9.38777H78.4726V9.18777H76.481V9.38777ZM76.581 15.5998V9.28777H76.381V15.5998H76.581ZM90.1362 8.49977H91.2572V8.29977H90.1362V8.49977ZM90.2361 15.5998V8.39977H90.0362V15.5998H90.2361ZM91.0664 15.4998H90.1362V15.6998H91.0664V15.4998ZM90.9664 9.73177V15.5998H91.1664V9.73177H90.9664ZM94.7888 15.5471L91.1514 9.67908L90.9814 9.78446L94.6188 15.6525L94.7888 15.5471ZM95.6579 15.4998H94.7038V15.6998H95.6579V15.4998ZM95.5579 8.39977V15.5998H95.7579V8.39977H95.5579ZM94.7396 8.49977H95.6579V8.29977H94.7396V8.49977ZM94.8396 14.0038V8.39977H94.6396V14.0038H94.8396ZM91.1722 8.45255L94.6546 14.0566L94.8245 13.951L91.3421 8.34699L91.1722 8.45255ZM87.0362 13.9931C86.0003 15.0311 84.3257 15.0311 83.2899 13.9931L83.1483 14.1344C84.2623 15.2506 86.0638 15.2506 87.1777 14.1344L87.0362 13.9931ZM87.0327 10.0027C88.0541 11.1357 88.0541 12.8639 87.0327 13.9968L87.1812 14.1307C88.2712 12.9217 88.2712 11.0779 87.1812 9.86881L87.0327 10.0027ZM83.2899 10.0064C84.3257 8.96848 86.0003 8.96848 87.0362 10.0064L87.1777 9.86513C86.0638 8.7489 84.2623 8.74891 83.1483 9.86513L83.2899 10.0064ZM83.2934 13.9968C82.272 12.8639 82.272 11.1357 83.2934 10.0027L83.1448 9.86881C82.0549 11.0779 82.0549 12.9217 83.1448 14.1307L83.2934 13.9968Z" fill="white"/>
<path d="M12.4507 9.04884C12.062 9.51817 11.8658 10.119 11.9021 10.7288V37.2728C11.8658 37.8827 12.062 38.4835 12.4507 38.9528L12.5341 39.0368L27.3104 24.1808V23.8328L12.5341 8.96484L12.4507 9.04884Z" fill="url(#paint0_linear_0_1358)"/>
<path d="M32.2 29.1372L27.3104 24.1812V23.8332L32.2 18.8652L32.3073 18.9252L38.163 22.2732C39.8326 23.2212 39.8326 24.7812 38.163 25.7412L32.3312 29.0772L32.2 29.1372Z" fill="url(#paint1_linear_0_1358)"/>
<path d="M32.3431 29.064L27.3104 24L12.4507 38.952C13.1528 39.573 14.1947 39.6033 14.9313 39.024L32.355 29.064" fill="url(#paint2_linear_0_1358)"/>
<path d="M32.3431 18.9355L14.9193 8.97547C14.1828 8.3962 13.1408 8.42645 12.4387 9.04747L27.3104 23.9995L32.3431 18.9355Z" fill="url(#paint3_linear_0_1358)"/>
<path opacity="0.2" d="M32.2 28.957L14.9193 38.857C14.2122 39.389 13.2413 39.389 12.5341 38.857L12.4507 38.941L12.5341 39.025C13.24 39.561 14.2135 39.561 14.9193 39.025L32.3431 29.065L32.2 28.957Z" fill="black"/>
<path opacity="0.12" fill-rule="evenodd" clip-rule="evenodd" d="M32.2 28.956L38.163 25.56C38.7792 25.254 39.2196 24.6778 39.3556 24C39.2941 24.7493 38.8392 25.4083 38.163 25.728L32.3073 29.064L32.2 28.956ZM11.8995 37.3376C11.9192 37.8656 12.1117 38.3748 12.4507 38.784L12.5341 38.88L12.4507 38.964C12.0734 38.5084 11.8774 37.929 11.8995 37.3376ZM11.8995 37.3376C11.9001 37.3197 11.901 37.3019 11.9021 37.284V37.104C11.8974 37.1821 11.8966 37.2601 11.8995 37.3376Z" fill="black"/>
<path opacity="0.25" d="M14.9193 9.1449L38.163 22.4409C38.7792 22.747 39.2196 23.3231 39.3556 24.0009C39.2941 23.2516 38.8392 22.5926 38.163 22.2729L14.9193 8.9769C13.2497 8.0289 11.8901 8.8209 11.8901 10.7409V10.9209C11.9259 8.9889 13.2616 8.1969 14.9193 9.1449Z" fill="white"/>
<defs>
<linearGradient id="paint0_linear_0_1358" x1="20.8384" y1="-9.06992" x2="-2.84116" y2="-2.81115" gradientUnits="userSpaceOnUse">
<stop stop-color="#00A0FF"/>
<stop offset="0.01" stop-color="#00A1FF"/>
<stop offset="0.26" stop-color="#00BEFF"/>
<stop offset="0.51" stop-color="#00D2FF"/>
<stop offset="0.76" stop-color="#00DFFF"/>
<stop offset="1" stop-color="#00E3FF"/>
</linearGradient>
<linearGradient id="paint1_linear_0_1358" x1="40.3454" y1="11.7609" x2="11.4966" y2="11.7609" gradientUnits="userSpaceOnUse">
<stop stop-color="#FFE000"/>
<stop offset="0.41" stop-color="#FFBD00"/>
<stop offset="0.78" stop-color="#FFA500"/>
<stop offset="1" stop-color="#FF9C00"/>
</linearGradient>
<linearGradient id="paint2_linear_0_1358" x1="12.014" y1="16.233" x2="-7.16605" y2="48.2966" gradientUnits="userSpaceOnUse">
<stop stop-color="#FF3A44"/>
<stop offset="1" stop-color="#C31162"/>
</linearGradient>
<linearGradient id="paint3_linear_0_1358" x1="0.846763" y1="4.91468" x2="9.40788" y2="19.2327" gradientUnits="userSpaceOnUse">
<stop stop-color="#32A071"/>
<stop offset="0.07" stop-color="#2DA771"/>
<stop offset="0.48" stop-color="#15CF74"/>
<stop offset="0.8" stop-color="#06E775"/>
<stop offset="1" stop-color="#00F076"/>
</linearGradient>
</defs>
</svg>
