<svg width="20" height="20" viewBox="0 0 20 20" fill="none" xmlns="http://www.w3.org/2000/svg">
<path d="M14.4806 0C17.5241 0 20.0001 2.47601 20 5.51928V14.4807C20 17.524 17.5241 20 14.4806 20H5.51916C2.4759 20 0 17.5241 0 14.4807V5.51928C0 2.47601 2.4759 0 5.51916 0H14.4806ZM18.2256 14.4807H18.2255V5.51928C18.2255 3.45447 16.5455 1.7745 14.4806 1.7745H5.51916C3.45435 1.7745 1.7745 3.45447 1.7745 5.51928V14.4807C1.7745 16.5456 3.45435 18.2256 5.51916 18.2255H14.4807C16.5456 18.2255 18.2256 16.5456 18.2256 14.4807ZM10 5C12.757 5 15 7.24301 15 10.0001C15 12.7571 12.757 15 10 15C7.24296 15 5 12.7571 5 10.0001C5 7.24301 7.24296 5 10 5ZM10 13.2782C11.8076 13.2782 13.2784 11.8077 13.2784 10C13.2784 8.19223 11.8077 6.72157 10 6.72157C8.19227 6.72157 6.72164 8.19223 6.72164 10C6.72164 11.8077 8.19239 13.2782 10 13.2782ZM15.4167 3.33333C15.7462 3.33333 16.0689 3.46629 16.3008 3.69924C16.5337 3.93106 16.6667 4.25379 16.6667 4.58333C16.6667 4.91174 16.5337 5.23447 16.3008 5.46742C16.0678 5.69924 15.7462 5.83333 15.4167 5.83333C15.0883 5.83333 14.7655 5.69924 14.5337 5.46742C14.3008 5.23447 14.1667 4.91186 14.1667 4.58333C14.1667 4.25379 14.3006 3.93106 14.5337 3.69924C14.7656 3.46629 15.0883 3.33333 15.4167 3.33333Z" fill="white"/>
</svg>
