<svg width="56" height="56" viewBox="0 0 56 56" fill="none" xmlns="http://www.w3.org/2000/svg">
<path d="M27.6218 51.3334C18.8296 51.3334 11.6829 44.3121 11.6667 35.6935V20.3066C11.6667 11.6881 18.8296 4.66675 27.6218 4.66675H28.7672C37.5595 4.66675 44.7223 11.6881 44.7223 20.3066V35.6935C44.7223 44.3121 37.5595 51.3334 28.7672 51.3334H27.6218ZM15.6354 20.3066V35.6935C15.6354 42.1772 21.0236 47.459 27.638 47.459H28.7834C35.3977 47.459 40.786 42.1772 40.786 35.6935V20.3066C40.786 13.823 35.3977 8.54114 28.7834 8.54114H27.638C21.0236 8.54114 15.6354 13.823 15.6354 20.3066ZM29.1667 24.1112C28.0918 24.1112 27.2223 23.2201 27.2223 22.0815V14.4742C27.2223 13.3521 28.0918 12.4445 29.1667 12.4445C30.2417 12.4445 31.1112 13.3521 31.1112 14.4742V22.0815C31.1112 23.2036 30.2417 24.1112 29.1667 24.1112Z" fill="#FD5545"/>
</svg>
