<svg width="40" height="40" viewBox="0 0 40 40" fill="none" xmlns="http://www.w3.org/2000/svg">
<path d="M19.7298 36.6673C13.4497 36.6673 8.34486 31.6521 8.33334 25.496V14.5053C8.33334 8.34923 13.4497 3.33398 19.7298 3.33398H20.548C26.8281 3.33398 31.9444 8.34923 31.9444 14.5053V25.496C31.9444 31.6521 26.8281 36.6673 20.548 36.6673H19.7298ZM11.1681 14.5053V25.496C11.1681 30.1272 15.0168 33.8999 19.7413 33.8999H20.5595C25.284 33.8999 29.1328 30.1272 29.1328 25.496V14.5053C29.1328 9.87414 25.284 6.10141 20.5595 6.10141H19.7413C15.0168 6.10141 11.1681 9.87414 11.1681 14.5053ZM20.8333 17.2229C20.0655 17.2229 19.4444 16.5864 19.4444 15.7731V10.3393C19.4444 9.53782 20.0655 8.88954 20.8333 8.88954C21.6012 8.88954 22.2222 9.53782 22.2222 10.3393V15.7731C22.2222 16.5746 21.6012 17.2229 20.8333 17.2229Z" fill="#FD5545"/>
</svg>
