<svg width="24" height="24" viewBox="0 0 24 24" fill="none" xmlns="http://www.w3.org/2000/svg">
<path fill-rule="evenodd" clip-rule="evenodd" d="M16.4481 5C18.9637 5 20.2809 5.34819 20.9943 6.2018C21.7111 7.05919 21.7647 8.37246 21.7647 10.278V13.722C21.7647 15.9057 21.4225 17.1669 20.6205 17.9394C19.8385 18.6927 18.6296 19 16.4481 19H7.31645C2.82221 19 2 17.2226 2 13.722V10.278C2 8.47109 2 7.16553 2.69298 6.27945C3.40374 5.37065 4.74328 5 7.31645 5H16.4481ZM10.5424 14.6568L14.689 12.4755C14.8997 12.3647 15.0316 12.1452 15.0313 11.9059C15.031 11.6667 14.8985 11.4475 14.6875 11.3372L10.5409 9.17004C10.3433 9.06673 10.1065 9.07469 9.91602 9.19109C9.72564 9.3075 9.60948 9.51541 9.60948 9.7395V14.088C9.60948 14.3125 9.72596 14.5206 9.91672 14.6369C10.018 14.6987 10.1324 14.7297 10.247 14.7297C10.3483 14.7297 10.4497 14.7055 10.5424 14.6568Z" fill="#FD5545"/>
</svg>
