<svg width="56" height="56" viewBox="0 0 56 56" fill="none" xmlns="http://www.w3.org/2000/svg">
<path fill-rule="evenodd" clip-rule="evenodd" d="M28 11.8767C30.5434 8.89 34.44 7 38.5 7C45.6867 7 51.3334 12.6467 51.3334 19.8333C51.3334 28.6461 43.413 35.8282 31.4129 46.7099L31.3834 46.7367L28 49.8167L24.6167 46.76L24.5246 46.6763C12.5595 35.8032 4.66669 28.6308 4.66669 19.8333C4.66669 12.6467 10.3134 7 17.5 7C21.56 7 25.4567 8.89 28 11.8767ZM28 43.5167L28.2334 43.2833C39.34 33.2267 46.6667 26.5767 46.6667 19.8333C46.6667 15.1667 43.1667 11.6667 38.5 11.6667C34.9067 11.6667 31.4067 13.9767 30.1933 17.1733H25.83C24.5934 13.9767 21.0934 11.6667 17.5 11.6667C12.8334 11.6667 9.33335 15.1667 9.33335 19.8333C9.33335 26.5767 16.66 33.2267 27.7667 43.2833L28 43.5167Z" fill="#FD5545"/>
</svg>
