<svg width="40" height="40" viewBox="0 0 40 40" fill="none" xmlns="http://www.w3.org/2000/svg">
<path fill-rule="evenodd" clip-rule="evenodd" d="M24.5167 23.3333H25.8333L34.15 31.6667L31.6667 34.15L23.3333 25.8333V24.5167L22.8833 24.05C20.9833 25.6833 18.5167 26.6667 15.8333 26.6667C9.85 26.6667 5 21.8167 5 15.8333C5 9.85 9.85 5 15.8333 5C21.8167 5 26.6667 9.85 26.6667 15.8333C26.6667 18.5167 25.6833 20.9833 24.05 22.8833L24.5167 23.3333ZM8.33333 15.8333C8.33333 19.9833 11.6833 23.3333 15.8333 23.3333C19.9833 23.3333 23.3333 19.9833 23.3333 15.8333C23.3333 11.6833 19.9833 8.33333 15.8333 8.33333C11.6833 8.33333 8.33333 11.6833 8.33333 15.8333Z" fill="white"/>
</svg>
