<svg width="960" height="234" viewBox="0 0 960 234" fill="none" xmlns="http://www.w3.org/2000/svg">
<path fill-rule="evenodd" clip-rule="evenodd" d="M28.824 220.176C23.9582 217.231 19.8185 213.346 16.4047 208.52C12.9909 203.694 10.1661 198.492 7.93017 192.914C5.69422 187.336 3.98175 181.506 2.79273 175.425C1.60371 169.344 0.792923 163.499 0.360342 157.888C1.31791 153.546 2.623 149.52 4.27565 145.811C5.9283 142.103 7.83034 138.525 9.98184 135.078C12.1333 131.631 14.4177 128.327 16.8349 125.167C19.2522 122.006 21.6265 118.811 23.9579 115.58C24.8902 115.482 25.7694 115.626 26.5954 116.01C27.0373 114.236 27.8145 112.661 28.927 111.288C30.0395 109.914 31.2419 108.648 32.5343 107.491L36.4115 104.02C37.7038 102.863 38.7427 101.536 39.5281 100.04C43.315 98.699 46.6336 97.0147 49.4842 94.9869C52.3347 92.9591 55.0523 90.7881 57.6371 88.474C60.2219 86.1599 62.9007 83.993 65.6735 81.9734C68.4463 79.9537 71.7262 78.2736 75.513 76.9329C76.7483 75.2319 78.3576 73.7274 80.3411 72.4191C82.3246 71.1108 84.3162 69.8803 86.3161 68.7274C88.3159 67.5746 90.2298 66.3522 92.058 65.0603C93.8861 63.7684 95.3237 62.1247 96.3708 60.1293C97.4339 61.2745 98.7996 61.563 100.468 60.9949C102.137 60.4267 103.646 59.8361 104.995 59.2229C105.911 58.9695 106.705 59.0432 107.375 59.4441C108.046 59.8449 108.682 60.2887 109.283 60.7754C109.884 61.2621 110.387 61.5628 110.791 61.6773C111.196 61.7919 111.574 61.2808 111.926 60.144C113.186 60.1688 113.593 60.6759 113.147 61.6654C112.701 62.655 112.417 63.3133 112.294 63.6404C113.815 63.1663 115.126 63.3035 116.226 64.052C117.325 64.8005 118.979 65.2158 121.188 65.298C122.046 65.9933 122.345 66.5903 122.083 67.0892C121.821 67.588 121.67 68.3895 121.629 69.4936C127.403 70.615 131.258 72.9198 133.196 76.4083C135.134 79.8967 135.689 83.6875 134.863 87.7808C134.036 91.874 132.128 95.7666 129.138 99.4588C126.148 103.151 122.69 105.753 118.764 107.266C114.078 109.015 109.741 110.728 105.754 112.404C101.766 114.08 97.9508 115.895 94.3069 117.849C90.6631 119.803 87.281 122.004 84.1605 124.453C81.04 126.902 78.3836 129.656 76.1913 132.714C71.9709 134.415 68.2269 136.537 64.9591 139.08C61.6914 141.623 58.6813 144.374 55.9288 147.334C53.1762 150.295 50.5525 153.359 48.0576 156.528C45.5626 159.697 43.0636 162.827 40.5605 165.918C40.8381 168.559 40.5843 170.628 39.7989 172.125C39.0135 173.622 38.1505 175.126 37.2097 176.639C37.8308 179.559 38.7566 182.015 39.9872 184.006C41.2178 185.998 42.4912 188.024 43.8076 190.086C56.6312 192.508 70.0416 193.416 84.0393 192.809C98.037 192.202 111.881 191.258 125.572 189.976C127.167 191.694 128.943 193.274 130.902 194.718C132.86 196.162 134.668 197.661 136.323 199.215C137.979 200.769 139.353 202.628 140.445 204.791C141.536 206.955 142.012 209.615 141.872 212.772C139.508 215.691 136.899 218.518 134.044 221.254C131.19 223.989 128.331 226.685 125.468 229.343C124.086 229.645 122.415 229.821 120.456 229.87C118.498 229.918 116.469 230.053 114.372 230.274C112.274 230.494 110.188 230.831 108.115 231.285C106.042 231.738 104.113 232.452 102.33 233.424C92.5077 234.143 82.3583 233.992 71.8818 232.972C61.4052 231.952 51.6609 230.423 42.6485 228.385C40.7268 226.545 38.7397 224.829 36.6871 223.238C34.6346 221.647 32.0136 220.626 28.824 220.176ZM190.173 199.211C189.117 205.607 188.096 210.467 187.11 213.791C186.124 217.115 184.489 220.626 182.207 224.322C180.154 224.224 178.78 224.604 178.085 225.462C177.39 226.321 176.608 227.11 175.741 227.83C174.375 228.287 173.365 228.394 172.711 228.148C172.057 227.903 171.476 227.61 170.969 227.271C170.462 226.931 169.839 226.604 169.099 226.289C168.358 225.974 167.289 225.89 165.891 226.037C165.449 224.827 164.977 223.698 164.474 222.651C163.971 221.604 162.882 221.326 161.205 221.816C161.385 220.54 161.353 219.483 161.107 218.645C160.862 217.807 160.586 217.05 160.28 216.375C159.973 215.701 159.705 215.022 159.476 214.339C159.248 213.656 159.231 212.754 159.428 211.634C158.651 211.715 157.972 211.237 157.392 210.198C156.811 209.159 156.153 208.129 155.417 207.106C155.589 204.26 155.778 201.569 155.983 199.034C156.187 196.499 156.525 194.107 156.996 191.858C157.466 189.609 157.82 187.372 158.058 185.147C158.295 182.923 157.826 180.694 156.648 178.461C157.319 178.862 157.773 178.697 158.01 177.965C158.247 177.233 158.382 176.276 158.415 175.094C158.448 173.912 158.403 172.739 158.281 171.573C158.158 170.408 157.979 169.445 157.742 168.684C158.871 164.48 159.716 160.189 160.277 155.809C160.838 151.43 161.325 147.097 161.739 142.812C162.152 138.526 162.613 134.315 163.121 130.176C163.629 126.038 164.48 122.178 165.674 118.596C167.351 118.106 169.275 118.1 171.446 118.579C173.618 119.057 174.994 119.816 175.574 120.855C179.288 117.322 182.466 113.178 185.108 108.423C187.751 103.668 190.483 99.0206 193.305 94.482C196.127 89.9434 199.348 85.8342 202.968 82.1544C206.588 78.4747 211.395 76.0055 217.39 74.747C220.743 76.7512 224.449 78.7576 228.51 80.7661C232.57 82.7745 236.047 85.5905 238.942 89.214C240.251 89.705 241.369 90.2551 242.297 90.8646C243.225 91.474 244.352 92.1019 245.676 92.7482L245.97 95.5453C248.015 97.0587 249.738 98.8807 251.14 101.011C252.543 103.142 253.845 105.44 255.047 107.906L258.652 115.305C259.854 117.771 261.199 120.104 262.687 122.304C262.458 123.114 262.372 123.79 262.429 124.334C262.486 124.878 262.664 125.449 262.963 126.046C263.261 126.643 263.521 127.244 263.741 127.849C263.962 128.454 264.052 129.309 264.011 130.413C264.263 137.299 262.629 143.049 259.107 147.661C255.586 152.273 251.171 156.233 245.862 159.54C240.554 162.847 234.812 165.768 228.637 168.303C222.462 170.837 216.925 173.461 212.025 176.176C212.091 176.797 212.395 177.08 212.939 177.022C213.483 176.965 213.718 177.333 213.644 178.127C217.619 180.066 220.767 181.62 223.09 182.79C225.412 183.96 227.594 184.909 229.634 185.637C231.674 186.365 233.858 186.961 236.185 187.423C238.511 187.886 241.744 188.371 245.882 188.878C250.02 189.386 253.245 189.793 255.555 190.1C257.866 190.408 259.973 190.657 261.879 190.85C263.785 191.042 265.721 191.153 267.688 191.182C269.655 191.211 272.441 191.193 276.048 191.128C277.594 192.38 278.974 193.924 280.188 195.76C281.402 197.596 282.267 199.469 282.782 201.379C283.297 203.289 283.57 205.145 283.603 206.949C283.635 208.752 283.242 210.246 282.424 211.432C282.629 211.882 282.999 212.04 283.534 211.905C284.07 211.77 284.657 211.747 285.295 211.837C284.428 212.557 283.733 213.416 283.209 214.413L281.638 217.406C281.115 218.404 280.501 219.293 279.798 220.074C279.094 220.855 278.051 221.397 276.669 221.699C272.048 224.07 266 224.824 258.525 223.96C251.05 223.096 241.489 221.076 229.844 217.901C224.021 216.314 219.276 214.888 215.608 213.624C211.94 212.36 208.738 211.046 206.003 209.684C203.267 208.322 200.752 206.819 198.459 205.175C196.165 203.53 193.403 201.543 190.173 199.211ZM215.102 115.758C213.654 118.424 211.987 120.877 210.101 123.118C208.216 125.358 206.412 127.629 204.69 129.931C202.968 132.233 201.465 134.748 200.181 137.475C198.896 140.203 198.123 143.308 197.861 146.792C203.234 145.599 208.747 143.488 214.398 140.459C220.05 137.429 225.404 134.549 230.458 131.819C229.33 127.067 227.252 123.357 224.222 120.691C221.192 118.024 218.152 116.38 215.102 115.758ZM400.597 68.9241C400.867 69.9955 400.992 70.8072 400.971 71.3593C400.951 71.9113 400.926 72.4245 400.897 72.8989C400.869 73.3732 400.883 73.8823 400.94 74.4262C400.997 74.9701 401.238 75.7696 401.663 76.8247C398.955 82.4511 395.567 86.46 391.498 88.8516C387.428 91.2432 382.953 93.1276 378.07 94.5049C373.187 95.8822 368.192 97.3106 363.084 98.7901C357.976 100.27 353.022 102.833 348.22 106.48C346.119 105.915 344.293 106.107 342.743 107.055C341.193 108.004 338.848 108.486 335.707 108.502C334.873 109.532 333.777 110.315 332.419 110.851C331.061 111.386 329.708 111.96 328.358 112.574C329.127 113.907 329.55 115.316 329.627 116.8C329.705 118.284 330.025 119.468 330.59 120.352C336.077 120.246 342.091 119.536 348.63 118.22C355.169 116.904 361.615 115.834 367.97 115.009C368.207 115.77 368.183 116.283 367.896 116.548C367.61 116.814 367.577 117.25 367.798 117.855C368.967 118.518 370.157 119.374 371.367 120.426C372.578 121.477 373.784 122.489 374.986 123.462C376.188 124.436 377.409 125.211 378.648 125.788C379.887 126.365 381.275 126.494 382.812 126.175C383.565 127.353 384.135 128.667 384.523 130.119C384.911 131.571 384.876 133.106 384.418 134.726C382.111 136.696 379.809 138.706 377.51 140.754C375.212 142.803 372.777 144.669 370.204 146.353C367.632 148.038 364.875 149.466 361.935 150.64C358.995 151.813 355.652 152.518 351.906 152.754L350.158 152.938C349.769 152.979 349.24 152.799 348.569 152.398C347.408 153.306 345.684 153.722 343.398 153.648C341.112 153.574 339.388 153.991 338.227 154.899C336.436 154.302 334.34 154.168 331.94 154.499C329.539 154.83 327.374 154.783 325.444 154.357C323.301 157.882 321.415 161.615 319.787 165.557C318.159 169.498 316.788 173.649 315.675 178.008C321.04 178.229 325.463 178.079 328.943 177.556C332.423 177.033 335.696 176.414 338.763 175.699C341.83 174.984 344.975 174.261 348.198 173.529C351.42 172.798 355.526 172.248 360.515 171.881C363.443 169.845 367.015 168.33 371.231 167.337C375.448 166.344 379.277 165.039 382.721 163.42C384.013 163.755 385.186 164.457 386.241 165.524C387.296 166.592 388.304 167.585 389.265 168.506C390.226 169.426 391.213 170.226 392.227 170.905C393.241 171.584 394.439 171.772 395.821 171.469C396.508 172.026 397.013 172.719 397.336 173.549C397.659 174.379 397.939 175.175 398.176 175.935C398.413 176.696 398.754 177.328 399.2 177.831C399.646 178.334 400.327 178.459 401.243 178.205C399.451 183.578 397.183 187.784 394.438 190.822C391.694 193.859 388.453 196.282 384.715 198.089C380.977 199.896 376.779 201.437 372.121 202.712C367.463 203.987 362.317 205.47 356.682 207.162C355.316 207.62 354.146 207.704 353.173 207.413C352.2 207.123 351.092 207.043 349.848 207.174C346.356 208.326 342.156 209.475 337.249 210.619C332.342 211.763 327.316 212.527 322.172 212.911C317.027 213.294 312.063 213.148 307.279 212.473C302.494 211.797 298.471 210.138 295.208 207.496C293.85 206.539 292.9 205.343 292.356 203.907C291.813 202.472 290.645 201.456 288.854 200.858C288.487 198.855 287.939 196.634 287.211 194.197C286.484 191.759 285.744 189.206 284.992 186.535C284.24 183.865 283.609 181.221 283.098 178.604C282.587 175.987 282.451 173.566 282.688 171.341C282.909 168.961 283.66 166.761 284.94 164.742C286.221 162.722 286.513 160.648 285.818 158.522C286.579 158.285 287 157.809 287.082 157.093C287.164 156.377 287.757 156.04 288.861 156.081C289.5 153.186 290.232 150.438 291.059 147.838C291.885 145.237 292.758 142.71 293.679 140.256C294.599 137.803 295.516 135.311 296.428 132.78C297.34 130.249 298.185 127.45 298.963 124.383C296.575 122.591 294.749 120.544 293.486 118.242C292.223 115.94 291.232 113.609 290.512 111.249C289.793 108.889 289.143 106.444 288.563 103.912C287.983 101.381 287.165 98.8355 286.11 96.2754C287.419 93.7812 289.123 91.6775 291.221 89.9645C293.319 88.2514 295.64 86.7898 298.184 85.5798C300.727 84.3698 303.52 83.2907 306.563 82.3425C309.606 81.3942 312.795 80.352 316.132 79.2157C322.136 76.5422 327.528 74.4044 332.308 72.8022C337.089 71.2 341.812 69.8001 346.478 68.6027C351.144 67.4053 356.009 66.2263 361.071 65.0658C366.134 63.9052 371.863 62.3604 378.259 60.4313C379.805 61.6828 381.199 62.2433 382.442 62.1126C382.917 60.6487 383.61 60.1438 384.522 60.5979C385.434 61.0519 385.738 60.5878 385.436 59.2056C387.268 61.684 389.482 63.6901 392.078 65.224C394.674 66.7579 397.514 67.9912 400.597 68.9241ZM530.043 168.203C529.389 170.942 528.311 173.766 526.809 176.673C525.308 179.58 523.464 182.209 521.275 184.56C519.087 186.911 516.591 188.941 513.785 190.65C510.98 192.359 507.953 193.463 504.706 193.961C502.637 193.707 501.224 193.345 500.468 192.875C499.712 192.404 498.92 191.977 498.094 191.592C497.596 191.331 497.14 191.104 496.727 190.911C496.314 190.719 495.944 190.562 495.617 190.439L492.697 189.567L493.311 186.439C493.491 185.163 493.311 184.2 492.771 183.55C492.232 182.9 491.197 182.026 489.668 180.93L488.123 179.679C487.607 179.262 487.17 178.836 486.81 178.403L482.382 174.39L488.504 172.097C492.275 170.601 494.73 168.929 495.872 167.081C497.013 165.233 497.216 162.305 496.48 158.297C493.307 158.002 490.696 158.198 488.647 158.885C486.598 159.572 484.519 160.34 482.409 161.19C479.693 162.261 476.927 163.22 474.109 164.066C471.292 164.912 468.173 165.515 464.755 165.874C463.512 166.005 462.342 166.088 461.246 166.125C460.15 166.161 458.972 166.167 457.713 166.143L455.333 165.921C454.843 164.245 454.43 163.306 454.094 163.106C453.759 162.905 453.42 162.666 453.076 162.388C452.218 161.693 451.292 160.73 450.298 159.499C449.305 158.268 448.935 156.617 449.189 154.548C448.265 153.231 447.652 151.882 447.349 150.5C446.613 152.462 446.118 154.478 445.864 156.547L445.176 158.976L442.895 159.688C442.6 159.876 442.404 160.25 442.306 160.81C442.207 161.37 442.175 161.806 442.207 162.116L441.458 166.201C441.18 166.545 440.898 166.85 440.612 167.115C440.325 167.381 440.043 167.686 439.765 168.029C439.601 169.46 439.36 170.9 439.041 172.347C438.721 173.795 438.394 175.165 438.058 176.457C437.494 178.559 437.042 180.609 436.702 182.609C436.362 184.608 436.368 186.532 436.719 188.381L436.056 191.043C435.378 192.057 434.6 192.885 433.725 193.527C432.85 194.169 431.971 194.772 431.087 195.336C430.809 195.679 430.411 195.996 429.891 196.286C429.372 196.577 428.965 196.816 428.67 197.004L428.241 199.641L425.492 200.401C423.816 200.892 422.636 201.252 421.953 201.48C421.27 201.709 420.462 201.873 419.53 201.971L417.175 201.983C415.318 200.764 413.879 199.776 412.857 199.019C411.835 198.263 410.661 197.561 409.336 196.915C407.742 195.197 406.818 193.88 406.565 192.964C406.311 192.048 406.066 191.21 405.829 190.449C405.42 189.549 405.144 188.793 405.001 188.18C404.858 187.566 404.615 187.12 404.271 186.842L400.947 184.364L403.291 181.996L403.107 178.009C405.382 169.757 407.884 161.796 410.613 154.125C413.342 146.454 416.171 138.616 419.1 130.609C420.082 127.992 421.025 125.379 421.929 122.771C422.833 120.162 423.776 117.549 424.758 114.932C424.553 114.482 424.418 113.946 424.353 113.325C424.288 112.703 424.37 111.988 424.599 111.178C426.03 108.357 427.18 105.84 428.047 103.628C428.914 101.416 429.778 99.1646 430.637 96.8747C431.602 94.1023 432.615 91.4036 433.674 88.7785C434.734 86.1533 436.135 83.4138 437.877 80.5597L441.435 78.5361C441.885 78.3317 442.409 78.0803 443.006 77.7819C443.603 77.4835 444.29 77.2934 445.067 77.2118L448.612 77.3105C452.751 74.833 456.26 71.597 459.139 67.6022C462.019 63.6074 464.898 58.8665 467.778 53.3791L469.766 49.8708L472.992 51.4171C473.818 51.8016 474.951 52.1146 476.39 52.3561C477.829 52.5976 479.351 52.8698 480.954 53.1726C483.816 53.5002 486.531 53.9218 489.099 54.4375C491.667 54.9531 493.81 55.9063 495.527 57.2969C496.721 59.6852 497.461 61.4927 497.747 62.7196C498.033 63.9464 498.396 65.165 498.838 66.3755C499.582 68.9683 500.287 71.565 500.953 74.1659C501.619 76.7668 502.201 79.6906 502.7 82.9376C503.754 85.4977 504.688 88.0311 505.502 90.5379C506.315 93.0448 507.094 95.5945 507.837 98.1872C509.006 101.835 510.163 105.366 511.308 108.781C512.452 112.196 513.809 115.392 515.379 118.369C516.622 118.238 517.407 118.234 517.734 118.357C518.479 117.965 519.27 117.646 520.108 117.4C520.947 117.155 521.901 116.898 522.973 116.628L525.512 116.125L526.69 118.358C526.927 119.119 527.785 119.814 529.266 120.444C531.302 120.387 532.823 120.66 533.829 121.261C534.835 121.862 535.767 122.51 536.626 123.206C537.313 123.762 537.983 124.163 538.638 124.408L542.281 125.439L540.784 129.132C539.524 132.092 537.591 135.005 534.986 137.872C532.381 140.738 529.381 143.213 525.986 145.298C526.24 146.214 526.45 147.096 526.618 147.942C526.785 148.789 527.073 149.662 527.482 150.561C528.226 153.154 528.9 155.833 529.505 158.597C530.11 161.361 530.412 164.236 530.412 167.221L530.043 168.203ZM458.442 134.958C463.071 134.157 467.269 133.363 471.035 132.574C474.801 131.785 478.966 130.68 483.53 129.258C481.952 124.71 480.277 119.977 478.503 115.057C476.729 110.137 474.881 105.265 472.96 100.439L471.806 102.917C469.041 106.507 466.434 110.473 463.984 114.815C461.534 119.158 459.486 123.222 457.842 127.009L455.486 131.498C454.7 132.995 453.993 134.483 453.363 135.963C454.279 135.71 455.164 135.538 456.019 135.448C456.873 135.359 457.681 135.195 458.442 134.958ZM656.442 61.3583C652.558 61.7666 648.391 62.4795 643.941 63.497C639.492 64.5146 635.125 65.5628 630.839 66.6416C627.78 67.4345 624.829 68.1374 621.987 68.7503C619.145 69.3632 616.567 69.8699 614.252 70.2703C613.524 73.8033 612.755 76.9478 611.944 79.7038C611.134 82.4599 610.238 85.1463 609.257 87.7633C608.291 90.5357 607.446 93.3346 606.722 96.1602C605.998 98.9858 605.333 102.001 604.727 105.207C603.434 107.857 602.393 110.284 601.604 112.488C600.814 114.692 600.247 117.147 599.903 119.854C598.284 122.381 597.142 124.976 596.48 127.638C595.817 130.3 595.35 132.587 595.08 134.501L594.442 137.396C593.607 138.427 593.141 139.222 593.043 139.782C592.944 140.342 592.609 140.888 592.036 141.42C592.061 143.145 591.696 144.912 590.944 146.719C590.715 147.529 590.559 148.291 590.477 149.007C590.395 149.723 590.371 150.236 590.403 150.547C590.567 152.101 590.284 153.152 589.556 153.699C589.793 154.46 589.879 155.276 589.814 156.147C589.748 157.018 589.678 157.85 589.605 158.643C589.335 160.557 589.334 162.05 589.604 163.121C590.136 163.694 590.62 164.193 591.057 164.618C591.495 165.043 591.832 165.636 592.069 166.397C593.067 166.92 593.807 167.235 594.29 167.342C594.96 167.743 595.95 168.189 597.258 168.679L599.601 170.79C600.852 175.215 600.528 178.862 598.63 181.733C596.61 184.93 592.802 186.823 587.208 187.411L584.411 187.705C583.552 187.009 583.021 186.437 582.816 185.987C581.524 185.652 580.473 185.369 579.664 185.14C578.854 184.911 578.089 184.363 577.37 183.496C575.252 182.776 573.538 182.17 572.23 181.679L570.01 180.734L569.716 177.937C568.481 176.653 567.502 175.185 566.778 173.533C566.055 171.881 565.448 170.216 564.957 168.539C564.499 167.174 564.011 165.889 563.492 164.687C562.973 163.485 562.353 162.45 561.634 161.583C560.376 152.603 560.43 144.899 561.797 138.471C563.164 132.043 564.633 125.84 566.204 119.861C567.12 116.623 568.033 113.345 568.941 110.029C569.85 106.713 570.59 103.296 571.163 99.7797L573.016 97.2283C573.843 94.6277 574.52 92.4748 575.047 90.7697C575.575 89.0645 576.138 87.3165 576.735 85.5255C577.087 84.3887 577.404 83.2949 577.686 82.244C577.969 81.1931 578.224 80.2629 578.453 79.4532C577.521 79.5512 576.671 79.6799 575.902 79.8392C575.133 79.9986 574.368 80.1968 573.608 80.4339C572.692 80.6873 571.849 80.8936 571.08 81.053C570.312 81.2123 569.539 81.3329 568.762 81.4145C567.674 81.5289 566.889 81.5328 566.406 81.4264C564.779 82.3831 562.955 82.9675 560.935 83.1798L558.604 83.4248C558.137 83.4738 557.706 83.4799 557.309 83.443C556.913 83.4062 556.559 83.4041 556.248 83.4367C554.694 83.6001 553.476 83.9638 552.592 84.528L544.9 85.3365C544.589 85.3691 544.205 85.4488 543.747 85.5755C543.289 85.7022 542.905 85.7819 542.594 85.8145C541.506 85.9289 540.328 85.9348 539.061 85.8324C537.793 85.7299 536.419 85.3638 534.939 84.7338C532.813 82.4434 531.431 81.2533 530.793 81.1632L528.401 78.5866C528.148 77.6706 527.821 76.8016 527.42 75.9795C527.02 75.1575 526.607 74.219 526.182 73.1639C525.397 71.6753 524.638 70.0661 523.907 68.3362C523.175 66.6063 522.678 64.4982 522.417 62.0119C522.442 60.7524 522.655 59.7874 523.056 59.1168C523.456 58.4463 523.788 57.8616 524.05 57.3627L524.381 53.7928L527.436 53.7075L533.963 53.0215C538.935 52.4988 543.965 51.7738 549.052 50.8463C554.139 49.9189 559.378 48.9362 564.768 47.8984C567.843 47.261 570.957 46.6194 574.11 45.9738C577.263 45.3282 580.532 44.6704 583.918 44.0003C584.393 42.5364 584.876 41.1502 585.366 39.8417L587.575 38.4313C590.356 37.9819 592.374 38.1233 593.629 38.8555C594.884 39.5877 595.941 40.3014 596.8 40.9967C600.186 40.3266 603.607 39.6136 607.062 38.8576C610.518 38.1016 614 37.225 617.509 36.2278C622.71 34.8955 627.959 33.6369 633.255 32.4518C638.551 31.2668 643.685 30.4129 648.657 29.8903C650.833 29.6616 652.939 29.5188 654.975 29.4619C657.012 29.405 658.901 29.4421 660.643 29.5732L663.145 30.9598C663.71 31.8432 664.46 32.6285 665.396 33.3156C666.332 34.0027 667.308 34.6858 668.322 35.3648C670.366 36.8781 672.443 38.7022 674.553 40.8372C676.663 42.9721 677.721 46.3172 677.729 50.8727C676.681 52.8681 675.863 54.0538 675.275 54.43L673.471 57.4475L671.115 57.4594C670.183 57.5574 669.34 57.7638 668.588 58.0786C667.836 58.3933 667.087 58.7469 666.343 59.1394C665.754 59.5155 665.161 59.8528 664.564 60.1512C663.967 60.4496 663.288 60.7173 662.527 60.9544C661.129 61.1014 659.998 61.1809 659.135 61.1931C658.272 61.2052 657.375 61.2603 656.442 61.3583ZM697.746 153.876C699.013 158.456 699.124 162.136 698.081 164.917C697.038 167.697 695.382 169.875 693.112 171.449C690.842 173.023 688.161 174.051 685.07 174.533C681.978 175.015 679.009 175.17 676.163 174.998C674.381 172.985 672.696 170.413 671.11 167.28C669.524 164.148 668.003 160.89 666.548 157.508C665.093 154.126 663.758 150.771 662.544 147.442C661.33 144.113 660.274 141.161 659.375 138.584C659.956 136.638 660.236 134.448 660.216 132.015C660.196 129.582 660.094 127.118 659.91 124.624C659.727 122.129 659.539 119.596 659.347 117.024C659.155 114.451 659.092 111.984 659.158 109.62C659.56 102.979 660.5 96.596 661.977 90.4705C663.454 84.345 664.479 78.0314 665.053 71.5296C665.217 70.0984 664.961 68.7898 664.287 67.6038C663.612 66.4178 663.373 65.2646 663.57 64.1442C663.66 63.5063 664.081 63.0299 664.833 62.7152C665.586 62.4004 665.999 61.8464 666.073 61.0531C666.359 59.2947 666.329 57.884 665.981 56.8207C665.634 55.7574 665.767 54.408 666.381 52.7724C667.027 51.4476 667.806 49.5196 668.719 46.9885C669.631 44.4574 669.793 41.8874 669.204 39.2783C670.505 38.199 671.711 36.9724 672.824 35.5986C673.936 34.2248 675.1 32.9634 676.315 31.8145C677.529 30.6656 678.912 29.617 680.462 28.6685C682.012 27.72 683.952 27.1233 686.283 26.8783C687.689 28.3016 688.685 29.9252 689.269 31.7491L691.023 37.2208C691.607 39.0447 692.374 40.7316 693.322 42.2816C694.271 43.8316 695.726 44.9747 697.689 45.7111L698.179 50.3729C698.375 52.2377 698.645 54.0554 698.988 55.8261C699.331 57.5968 699.852 59.1916 700.551 60.6107C701.25 62.0298 702.246 62.9071 703.538 63.2426C701.525 70.9956 699.698 78.6503 698.057 86.207C696.416 93.7637 695.206 101.314 694.428 108.859C693.65 116.403 693.459 123.925 693.854 131.425C694.25 138.925 695.547 146.409 697.746 153.876ZM799.807 118.168C799.88 120.36 799.591 122.472 798.941 124.504C798.29 126.537 797.437 128.512 796.382 130.429C795.327 132.347 794.147 134.199 792.842 135.986C791.537 137.773 790.251 139.361 788.983 140.751C789.661 142.723 789.86 144.234 789.577 145.284C789.295 146.335 789.338 147.863 789.705 149.866C788.028 156.327 784.929 160.856 780.41 163.452C775.891 166.048 771.379 166.09 766.873 163.578C765.033 162.515 763.428 161.073 762.058 159.253C760.689 157.433 758.97 156.396 756.9 156.142C757.089 153.452 756.578 150.835 755.368 148.291C754.158 145.747 753.001 144.455 751.897 144.414C751.088 141.199 750.021 137.777 748.697 134.145C747.372 130.514 746.122 126.835 744.945 123.11C743.767 119.384 742.715 115.724 741.787 112.129C740.86 108.535 740.31 105.176 740.139 102.051C740.131 100.481 739.712 99.111 738.882 97.9414C738.052 96.7717 737.392 95.3486 736.902 93.6719C735.904 90.1631 735.314 86.4153 735.131 82.4282C734.947 78.4412 734.668 74.6606 734.292 71.0866C733.933 67.6679 733.351 63.9977 732.546 60.076C731.741 56.1542 730.991 52.3839 730.296 48.7648C729.602 45.1457 729.095 41.821 728.777 38.7908C728.458 35.7606 728.598 33.3501 729.195 31.5591C729.931 29.5963 731.054 27.9465 732.563 26.6096C734.072 25.2726 735.453 23.8314 736.704 22.2858C740.156 22.2373 743.022 23.35 745.303 25.624C747.585 27.898 748.607 30.1472 748.369 32.3718C751.845 34.0489 754.721 36.3782 756.998 39.3596C759.276 42.341 761.205 45.7517 762.787 49.5918C764.369 53.4319 765.626 57.5417 766.558 61.9215C767.489 66.3012 768.335 70.6114 769.095 74.8521C769.855 79.0928 770.594 83.1392 771.314 86.9914C772.033 90.8436 773.005 94.1192 774.232 96.8183C779.116 87.9781 783.161 80.1295 786.368 73.2723C789.575 66.4151 792.889 59.8217 796.308 53.4921C799.728 47.1624 803.605 40.7062 807.941 34.1231C812.277 27.5401 818.007 20.025 825.132 11.5777C826.702 11.5698 828.017 11.7458 829.076 12.1059C830.135 12.4659 831.069 12.7604 831.879 12.9896C832.688 13.2187 833.649 13.3926 834.762 13.5114C835.874 13.6302 837.346 13.4362 839.178 12.9294C839.963 14.418 840.548 15.4956 840.932 16.1622C841.316 16.8288 841.662 17.4995 841.968 18.1743C842.275 18.8491 842.68 19.7099 843.182 20.7568C843.685 21.8038 844.509 23.2883 845.654 25.2104C846.169 25.6276 846.389 26.2328 846.316 27.0262C846.242 27.8195 846.203 28.5698 846.199 29.2773C846.195 29.9847 846.209 30.4938 846.242 30.8046C846.274 31.1154 846.663 31.0746 847.407 30.6821C847.169 32.9066 846.562 34.9736 845.584 36.8832C844.607 38.7927 844.326 40.9824 844.743 43.4524C841.659 48.4899 838.241 53.7195 834.491 59.1413C830.74 64.563 827.006 70.1401 823.288 75.8727C819.57 81.6053 816.074 87.5893 812.802 93.8249C809.53 100.061 806.83 106.511 804.702 113.176C803.925 113.258 803.367 113.552 803.028 114.059C802.688 114.566 802.392 115.108 802.138 115.684C801.884 116.261 801.588 116.803 801.248 117.31C800.909 117.817 800.428 118.103 799.807 118.168ZM958.617 10.2738C958.887 11.3452 959.012 12.1569 958.991 12.709C958.971 13.261 958.946 13.7742 958.917 14.2486C958.889 14.7229 958.903 15.232 958.96 15.7759C959.017 16.3198 959.258 17.1193 959.683 18.1744C956.975 23.8008 953.587 27.8097 949.518 30.2013C945.449 32.5929 940.973 34.4773 936.09 35.8546C931.207 37.232 926.212 38.6603 921.104 40.1399C915.996 41.6194 911.042 44.1825 906.24 47.8294C904.139 47.2647 902.313 47.4567 900.763 48.4051C899.213 49.3536 896.868 49.8358 893.727 49.8516C892.893 50.882 891.797 51.6649 890.439 52.2004C889.081 52.7359 887.728 53.3102 886.378 53.9234C887.147 55.2566 887.57 56.6654 887.647 58.1498C887.725 59.6342 888.045 60.8181 888.61 61.7015C894.097 61.596 900.111 60.8854 906.65 59.5697C913.189 58.254 919.635 57.1836 925.99 56.3586C926.227 57.1192 926.203 57.6324 925.916 57.8982C925.63 58.1639 925.597 58.5994 925.818 59.2047C926.987 59.8673 928.177 60.7242 929.387 61.7753C930.598 62.8265 931.804 63.8387 933.006 64.8122C934.208 65.7856 935.429 66.5607 936.668 67.1375C937.907 67.7143 939.295 67.8433 940.832 67.5246C941.585 68.7024 942.155 70.0172 942.543 71.4689C942.931 72.9207 942.896 74.4562 942.438 76.0755C940.131 78.0461 937.829 80.0556 935.53 82.104C933.232 84.1523 930.797 86.0187 928.224 87.703C925.652 89.3874 922.895 90.8162 919.955 91.9893C917.015 93.1625 913.672 93.8673 909.926 94.1039L908.178 94.2877C907.789 94.3285 907.26 94.1485 906.589 93.7476C905.428 94.6553 903.704 95.0721 901.418 94.9981C899.132 94.9242 897.408 95.341 896.247 96.2486C894.456 95.6513 892.36 95.5181 889.96 95.8489C887.559 96.1798 885.394 96.1324 883.464 95.7068C881.321 99.2315 879.435 102.965 877.807 106.906C876.179 110.848 874.808 114.999 873.695 119.358C879.06 119.579 883.483 119.429 886.963 118.906C890.443 118.383 893.716 117.764 896.783 117.049C899.85 116.334 902.995 115.61 906.218 114.879C909.44 114.147 913.546 113.598 918.535 113.231C921.463 111.195 925.035 109.68 929.251 108.687C933.467 107.694 937.297 106.388 940.741 104.769C942.033 105.105 943.206 105.806 944.261 106.874C945.316 107.941 946.324 108.935 947.285 109.855C948.246 110.776 949.233 111.575 950.247 112.254C951.261 112.933 952.459 113.122 953.841 112.819C954.528 113.375 955.033 114.069 955.356 114.899C955.679 115.729 955.959 116.524 956.196 117.285C956.433 118.046 956.774 118.677 957.22 119.181C957.666 119.684 958.347 119.808 959.263 119.555C957.471 124.928 955.203 129.133 952.458 132.171C949.714 135.209 946.473 137.632 942.735 139.438C938.997 141.245 934.799 142.786 930.141 144.061C925.483 145.336 920.337 146.82 914.702 148.512C913.336 148.97 912.166 149.054 911.193 148.763C910.22 148.473 909.112 148.393 907.868 148.523C904.376 149.676 900.176 150.824 895.269 151.969C890.362 153.113 885.336 153.877 880.192 154.26C875.047 154.644 870.083 154.498 865.299 153.822C860.514 153.147 856.491 151.488 853.228 148.846C851.87 147.889 850.92 146.693 850.376 145.257C849.833 143.822 848.665 142.805 846.874 142.208C846.507 140.204 845.959 137.984 845.231 135.546C844.504 133.109 843.764 130.555 843.012 127.885C842.26 125.215 841.629 122.571 841.118 119.954C840.607 117.336 840.471 114.915 840.708 112.691C840.929 110.311 841.68 108.111 842.96 106.091C844.241 104.071 844.533 101.998 843.838 99.8717C844.599 99.6346 845.02 99.1583 845.102 98.4427C845.184 97.7271 845.777 97.3898 846.881 97.4308C847.52 94.5357 848.252 91.7879 849.079 89.1873C849.905 86.5866 850.778 84.0596 851.699 81.6062C852.619 79.1528 853.536 76.6606 854.448 74.1294C855.36 71.5983 856.205 68.7994 856.983 65.7326C854.595 63.9411 852.769 61.8942 851.506 59.5917C850.243 57.2892 849.252 54.9582 848.532 52.5986C847.813 50.239 847.163 47.7936 846.583 45.2622C846.003 42.7309 845.185 40.1852 844.13 37.6251C845.439 35.1309 847.143 33.0273 849.241 31.3142C851.339 29.6011 853.66 28.1396 856.204 26.9296C858.747 25.7195 861.54 24.6404 864.583 23.6922C867.626 22.744 870.815 21.7017 874.152 20.5654C880.156 17.892 885.548 15.7542 890.328 14.1519C895.109 12.5497 899.832 11.1499 904.498 9.95246C909.164 8.75504 914.029 7.57606 919.091 6.4155C924.154 5.25495 929.883 3.71013 936.279 1.781C937.825 3.03256 939.219 3.593 940.462 3.46234C940.937 1.99845 941.63 1.49354 942.542 1.9476C943.454 2.40165 943.758 1.93757 943.456 0.55535C945.288 3.03374 947.502 5.03984 950.098 6.57372C952.694 8.10761 955.534 9.34095 958.617 10.2738Z" fill="white"/>
</svg>
