<svg width="32" height="32" viewBox="0 0 32 32" fill="none" xmlns="http://www.w3.org/2000/svg">
<path fill-rule="evenodd" clip-rule="evenodd" d="M16.0001 6.78667C17.4534 5.08 19.6801 4 22.0001 4C26.1067 4 29.3334 7.22667 29.3334 11.3333C29.3334 16.3692 24.8075 20.4733 17.9503 26.6913L17.9334 26.7067L16.0001 28.4667L14.0667 26.72L14.0141 26.6722C7.17692 20.459 2.66675 16.3604 2.66675 11.3333C2.66675 7.22667 5.89341 4 10.0001 4C12.3201 4 14.5467 5.08 16.0001 6.78667ZM16.0001 24.8667L16.1334 24.7333C22.4801 18.9867 26.6667 15.1867 26.6667 11.3333C26.6667 8.66667 24.6667 6.66667 22.0001 6.66667C19.9467 6.66667 17.9467 7.98667 17.2534 9.81333H14.7601C14.0534 7.98667 12.0534 6.66667 10.0001 6.66667C7.33341 6.66667 5.33341 8.66667 5.33341 11.3333C5.33341 15.1867 9.52008 18.9867 15.8667 24.7333L16.0001 24.8667Z" fill="#FD5545"/>
</svg>
