<svg width="32" height="32" viewBox="0 0 32 32" fill="none" xmlns="http://www.w3.org/2000/svg">
<path d="M21.9742 2.66797C26.0322 2.66797 29.3336 5.96932 29.3334 10.027V21.9756C29.3334 26.0333 26.0322 29.3346 21.9742 29.3346H10.0256C5.96794 29.3346 2.66675 26.0334 2.66675 21.9756V10.027C2.66675 5.96932 5.96794 2.66797 10.0256 2.66797H21.9742ZM26.9676 21.9756H26.9674V10.027C26.9674 7.27393 24.7275 5.03396 21.9742 5.03396H10.0256C7.27255 5.03396 5.03274 7.27393 5.03274 10.027V21.9756C5.03274 24.7288 7.27255 26.9688 10.0256 26.9686H21.9744C24.7276 26.9686 26.9676 24.7288 26.9676 21.9756ZM16.0001 9.33464C19.6761 9.33464 22.6667 12.3253 22.6667 16.0015C22.6667 19.6774 19.6761 22.668 16.0001 22.668C12.324 22.668 9.33342 19.6774 9.33342 16.0015C9.33342 12.3253 12.324 9.33464 16.0001 9.33464ZM16.0001 20.3722C18.4102 20.3722 20.3712 18.4115 20.3712 16.0013C20.3712 13.5909 18.4104 11.6301 16.0001 11.6301C13.5898 11.6301 11.6289 13.5909 11.6289 16.0013C11.6289 18.4115 13.5899 20.3722 16.0001 20.3722ZM23.2223 7.11241C23.6617 7.11241 24.092 7.28969 24.4011 7.60029C24.7117 7.90938 24.889 8.33969 24.889 8.77908C24.889 9.21696 24.7117 9.64726 24.4011 9.95787C24.0905 10.267 23.6617 10.4457 23.2223 10.4457C22.7844 10.4457 22.3541 10.267 22.045 9.95787C21.7344 9.64726 21.5556 9.21711 21.5556 8.77908C21.5556 8.33969 21.7343 7.90938 22.045 7.60029C22.3543 7.28969 22.7844 7.11241 23.2223 7.11241Z" fill="#FD5545"/>
</svg>
