<svg width="32" height="32" viewBox="0 0 32 32" fill="none" xmlns="http://www.w3.org/2000/svg">
<path d="M15.7839 29.3346C10.7598 29.3346 6.67597 25.3224 6.66675 20.3976V11.6051C6.66675 6.68017 10.7598 2.66797 15.7839 2.66797H16.4385C21.4626 2.66797 25.5556 6.68017 25.5556 11.6051V20.3976C25.5556 25.3224 21.4626 29.3346 16.4385 29.3346H15.7839ZM8.93452 11.6051V20.3976C8.93452 24.1025 12.0135 27.1207 15.7932 27.1207H16.4477C20.2273 27.1207 23.3063 24.1025 23.3063 20.3976V11.6051C23.3063 7.90009 20.2273 4.88191 16.4477 4.88191H15.7932C12.0135 4.88191 8.93452 7.90009 8.93452 11.6051ZM16.6667 13.7791C16.0525 13.7791 15.5556 13.2699 15.5556 12.6193V8.27224C15.5556 7.63104 16.0525 7.11241 16.6667 7.11241C17.281 7.11241 17.7779 7.63104 17.7779 8.27224V12.6193C17.7779 13.2605 17.281 13.7791 16.6667 13.7791Z" fill="#FD5545"/>
</svg>
