<svg width="48" height="48" viewBox="0 0 48 48" fill="none" xmlns="http://www.w3.org/2000/svg">
<path fill-rule="evenodd" clip-rule="evenodd" d="M24 10.18C26.18 7.62 29.52 6 33 6C39.16 6 44 10.84 44 17C44 24.5538 37.2112 30.7099 26.9253 40.037L26.9 40.06L24 42.7L21.1 40.08L21.021 40.0083C10.7653 30.6885 4 24.5407 4 17C4 10.84 8.84 6 15 6C18.48 6 21.82 7.62 24 10.18ZM24 37.3L24.2 37.1C33.72 28.48 40 22.78 40 17C40 13 37 10 33 10C29.92 10 26.92 11.98 25.88 14.72H22.14C21.08 11.98 18.08 10 15 10C11 10 8 13 8 17C8 22.78 14.28 28.48 23.8 37.1L24 37.3Z" fill="#FD5545"/>
</svg>
