<svg width="40" height="40" viewBox="0 0 40 40" fill="none" xmlns="http://www.w3.org/2000/svg">
<path fill-rule="evenodd" clip-rule="evenodd" d="M19.9999 8.48333C21.8166 6.35 24.5999 5 27.4999 5C32.6333 5 36.6666 9.03333 36.6666 14.1667C36.6666 20.4615 31.0092 25.5916 22.4377 33.3642L22.4166 33.3833L19.9999 35.5833L17.5833 33.4L17.5175 33.3402C8.97097 25.5737 3.33325 20.4506 3.33325 14.1667C3.33325 9.03333 7.36659 5 12.4999 5C15.3999 5 18.1833 6.35 19.9999 8.48333ZM19.9999 31.0833L20.1666 30.9167C28.0999 23.7333 33.3333 18.9833 33.3333 14.1667C33.3333 10.8333 30.8333 8.33333 27.4999 8.33333C24.9333 8.33333 22.4333 9.98333 21.5666 12.2667H18.4499C17.5666 9.98333 15.0666 8.33333 12.4999 8.33333C9.16658 8.33333 6.66659 10.8333 6.66659 14.1667C6.66659 18.9833 11.8999 23.7333 19.8333 30.9167L19.9999 31.0833Z" fill="#FD5545"/>
</svg>
