<svg width="11" height="21" viewBox="0 0 11 21" fill="none" xmlns="http://www.w3.org/2000/svg">
<path d="M4.32016 20.64V18.24C3.61616 18.16 2.87216 17.968 2.08816 17.664C1.32016 17.344 0.656156 16.928 0.0961563 16.416L1.63216 14.04C2.24016 14.504 2.81616 14.856 3.36016 15.096C3.92016 15.32 4.48816 15.432 5.06416 15.432C5.73616 15.432 6.22416 15.296 6.52816 15.024C6.84816 14.752 7.00816 14.336 7.00816 13.776C7.00816 13.36 6.84816 13.008 6.52816 12.72C6.22416 12.432 5.83216 12.16 5.35216 11.904C4.88816 11.632 4.38416 11.368 3.84016 11.112C3.29616 10.84 2.78416 10.52 2.30416 10.152C1.84016 9.784 1.44816 9.352 1.12816 8.856C0.824156 8.36 0.672156 7.752 0.672156 7.032C0.672156 5.848 0.992156 4.872 1.63216 4.104C2.28816 3.32 3.18416 2.816 4.32016 2.592V0.119998H6.64816V2.544C7.41616 2.656 8.08816 2.888 8.66416 3.24C9.24016 3.592 9.76016 4.016 10.2242 4.512L8.44816 6.528C8.01616 6.128 7.60016 5.832 7.20016 5.64C6.80016 5.432 6.34416 5.328 5.83216 5.328C5.25616 5.328 4.81616 5.448 4.51216 5.688C4.20816 5.928 4.05616 6.32 4.05616 6.864C4.05616 7.248 4.20816 7.576 4.51216 7.848C4.83216 8.104 5.22416 8.352 5.68816 8.592C6.16816 8.832 6.68016 9.08 7.22416 9.336C7.76816 9.592 8.27216 9.904 8.73616 10.272C9.21616 10.64 9.60816 11.088 9.91216 11.616C10.2322 12.128 10.3922 12.768 10.3922 13.536C10.3922 14.688 10.0802 15.68 9.45616 16.512C8.83216 17.328 7.89616 17.872 6.64816 18.144V20.64H4.32016Z" fill="white"/>
</svg>
