<svg width="40" height="40" viewBox="0 0 40 40" fill="none" xmlns="http://www.w3.org/2000/svg">
<path d="M27.4676 3.33301C32.5401 3.33301 36.6668 7.4597 36.6666 12.5318V27.4675C36.6666 32.5396 32.5401 36.6663 27.4676 36.6663H12.5319C7.45975 36.6663 3.33325 32.5398 3.33325 27.4675V12.5318C3.33325 7.4597 7.45975 3.33301 12.5319 3.33301H27.4676ZM33.7093 27.4675H33.7091V12.5318C33.7091 9.09046 30.9091 6.2905 27.4676 6.2905H12.5319C9.09051 6.2905 6.29075 9.09046 6.29075 12.5318V27.4675C6.29075 30.9091 9.09051 33.709 12.5319 33.7088H27.4678C30.9093 33.7088 33.7093 30.9091 33.7093 27.4675ZM19.9999 11.6663C24.595 11.6663 28.3333 15.4047 28.3333 19.9999C28.3333 24.5948 24.595 28.333 19.9999 28.333C15.4049 28.333 11.6666 24.5948 11.6666 19.9999C11.6666 15.4047 15.4049 11.6663 19.9999 11.6663ZM19.9999 25.4633C23.0126 25.4633 25.4638 23.0124 25.4638 19.9997C25.4638 16.9867 23.0128 14.5356 19.9999 14.5356C16.987 14.5356 14.536 16.9867 14.536 19.9997C14.536 23.0124 16.9872 25.4633 19.9999 25.4633ZM29.0277 8.88856C29.5769 8.88856 30.1148 9.11015 30.5012 9.49841C30.8894 9.88478 31.111 10.4227 31.111 10.9719C31.111 11.5192 30.8894 12.0571 30.5012 12.4454C30.1129 12.8317 29.5769 13.0552 29.0277 13.0552C28.4803 13.0552 27.9425 12.8317 27.5561 12.4454C27.1679 12.0571 26.9444 11.5194 26.9444 10.9719C26.9444 10.4227 27.1677 9.88478 27.5561 9.49841C27.9427 9.11015 28.4803 8.88856 29.0277 8.88856Z" fill="white"/>
</svg>
