<svg width="24" height="24" viewBox="0 0 24 24" fill="none" xmlns="http://www.w3.org/2000/svg">
<path d="M11.8379 22C8.06979 22 5.00691 18.9909 5 15.2972V8.70281C5 5.00915 8.06979 2 11.8379 2H12.3288C16.0969 2 19.1667 5.00915 19.1667 8.70281V15.2972C19.1667 18.9909 16.0969 22 12.3288 22H11.8379ZM6.70083 8.70281V15.2972C6.70083 18.0759 9.01009 20.3395 11.8448 20.3395H12.3357C15.1704 20.3395 17.4797 18.0759 17.4797 15.2972V8.70281C17.4797 5.92409 15.1704 3.66045 12.3357 3.66045H11.8448C9.01009 3.66045 6.70083 5.92409 6.70083 8.70281ZM12.5 10.3333C12.0393 10.3333 11.6667 9.95144 11.6667 9.46346V6.20321C11.6667 5.7223 12.0393 5.33333 12.5 5.33333C12.9607 5.33333 13.3333 5.7223 13.3333 6.20321V9.46346C13.3333 9.94437 12.9607 10.3333 12.5 10.3333Z" fill="#B3B3B3"/>
</svg>
